<?xml version="1.0" encoding="UTF-8"?>
<svg id="Calque_1" xmlns="http://www.w3.org/2000/svg" viewBox="0 0 575.11 549.9">
  <defs>
    <style>
      .cls-1 {
        fill: #1d1d1b;
      }

      .cls-2 {
        fill: #c6332c;
      }
    </style>
  </defs>
  <g>
    <path class="cls-1" d="M388.5,488.6c1.57,1.33,3.13,2.65,4.7,3.98l-.15-.15c-14.33,4.46-29.07,5.6-43.95,5.15-5.69-.17-11.38-.94-17.03-1.75-1.33-.19-2.47-1.68-3.69-2.57,1.19-1.24,2.19-3.11,3.63-3.58,2.28-.73,4.86-.57,7.31-.68,13.18-.57,26.36-1.18,39.54-1.59,2.1-.06,4.21.98,6.35,1.3,1.14.17,2.35-.11,3.53-.19l-.24.07Z"/>
    <path class="cls-1" d="M335.64,182.33c.36.08.85.2,1.34.31-.43.29-.82.7-1.29.85-10.59,3.39-21.22,6.65-31.78,10.15-4.83,1.6-9.51,3.66-14.26,5.5-.68.26-1.4.43-2.09.64.46-.67.78-1.69,1.41-1.94,11.55-4.6,23.08-9.3,34.77-13.53,3.67-1.33,7.81-1.33,11.91-1.97Z"/>
    <path class="cls-1" d="M281.82,184.39c-1.25.91-2.04,1.6-2.93,2.12-6.54,3.82-13.09,7.62-19.66,11.39-.88.51-1.91.77-2.87,1.14.57-1.09.85-2.65,1.74-3.19,6.67-3.99,13.45-7.77,20.21-11.61.49-.28,1.04-.57,1.58-.6.44-.03.89.32,1.93.75Z"/>
    <path class="cls-1" d="M236.53,215.77c-1.8,1.92-3.54,3.91-5.46,5.7-.57.53-1.66.51-2.51.75.22-.77.19-1.8.69-2.26,5.37-5.04,10.79-10.03,16.29-14.93.51-.46,1.64-.22,2.48-.31-.37.76-.55,1.74-1.14,2.25-3.4,2.99-6.9,5.87-10.35,8.8Z"/>
    <path class="cls-1" d="M288.16,181.95c-.14-.09-.56-.36-.97-.63.41-.55.72-1.42,1.25-1.61,6.79-2.35,13.61-4.62,20.45-6.85.45-.15,1.06.21,1.59.34-.18.43-.26,1.14-.55,1.24-7.13,2.51-14.29,4.95-21.77,7.52Z"/>
    <path class="cls-1" d="M484.29,302.15c6.52-.36,9.09,2.15,7.51,7.51-.29.99-1.3,1.76-1.98,2.63-.53-.77-1.14-1.5-1.56-2.33-1.35-2.63-2.63-5.29-3.94-7.93,0,0-.04.11-.04.11Z"/>
    <path class="cls-1" d="M320.12,172.43c-.79-.25-1.73-.56-2.67-.86,2.02-.73,4-1.77,6.08-2.08,1.25-.18,2.66.78,4,1.23-2.37.55-4.75,1.09-7.42,1.71Z"/>
    <path class="cls-1" d="M267.18,208.06c-2.77,2.47-5.52,4.97-8.35,7.36-.45.38-1.31.29-1.99.41.37-.57.62-1.33,1.14-1.67,3.07-2.05,6.2-4.01,9.32-6l-.12-.09Z"/>
    <path class="cls-1" d="M318.93,210.08c-2.86,1.87-4.13,2.73-5.46,3.49-.09.05-.59-.6-.9-.92,1.27-1.03,2.49-2.11,3.83-3.03.29-.2.97.15,2.53.46Z"/>
    <g>
      <path class="cls-1" d="M228.22,430.49c2.73,2.61,7.27,4.31,4.79,9.54,0,0,.13-.11.13-.11-7.94-10.1-16.25-19.79-19.28-33.01-1.37-5.96-6.37-11-8.48-16.91-8.48-23.71-10.2-48.19-7.02-73.08.19-1.5.61-2.98,1.08-4.42.08-.25,1.34-.4,1.36-.35,2.34,6.71,4.86,13.37,6.79,20.19,1.03,3.66-.88,8.03,2.57,11.21.01.02.2.25.2.25l-.2-.4c.73-.18,1.96-.71,2.11-.49,3.93,5.77,12.36,5.33,15.86,11.22,1.57,2.64,2.77,6.95,1.69,9.45-4.11,9.5-2.56,18.84-.9,28.32.67,3.84.56,7.11-2.62,10.31-1.51,1.53-1.75,5.22-1.25,7.66,1.21,5.91,3.3,11.64,4.76,17.5.22.87-1,2.1-1.55,3.16-.02-.01-.04-.02-.06-.03ZM218.14,388.74c-1.21-.96-2.37-2.28-2.73-2.09-.98.52-1.62,1.68-2.4,2.58.8.58,1.62,1.64,2.39,1.6.81-.04,1.56-1.13,2.74-2.09Z"/>
      <path class="cls-1" d="M354.66,512.8c-54.19-.94-99.12-21.66-134.38-63-.37-.43-.92-.82-1.06-1.32-.42-1.41-.68-2.88-1-4.32,1.01.89,2.17,1.65,3.01,2.68,27.59,33.86,62.93,55.05,105.97,61.73,52.52,8.15,99.43-5.52,140.02-40.16,2.12-1.81,4.73-3.03,7.11-4.53-1.88,2.22-3.49,4.75-5.68,6.61-27.43,23.18-58.74,37.52-94.67,41.21-3.21.33-6.39.88-9.61,1.06-3.23.19-6.47.04-9.71.04Z"/>
      <path class="cls-1" d="M180.4,339.75c.15-34.26,9.81-65.59,28.32-94.23,3.89-6.02,8.49-11.59,12.9-17.25.78-1,2.25-1.46,3.4-2.16-.47,1.28-.64,2.82-1.46,3.81-11.76,14.15-21.4,29.6-27.92,46.8-18.6,49.07-15.97,97.04,8.15,143.73,1.31,2.53,2.72,5.01,3.87,7.6.33.74-.11,1.82-.2,2.75-.64-.56-1.49-1.01-1.91-1.71-12.19-20.26-20.17-42.05-23.28-65.5-1.05-7.89-1.27-15.9-1.87-23.85Z"/>
      <path class="cls-1" d="M265.94,531.19c-6.53-3.76-13.13-7.42-19.58-11.31-43.04-25.9-73.04-62.6-90.54-109.6-.53-1.42-1.19-2.87-1.33-4.35-.11-1.21.49-2.48.77-3.72.82.78,2.11,1.42,2.39,2.36,1.63,5.51,3.03,11.1,4.52,16.65.15.54.29,1.13.59,1.58,13.09,19.74,23.6,41.2,40.46,58.42,15.98,16.33,33.68,30.19,53.58,41.4,3.54,1.99,6.12,5.68,9.14,8.58h0Z"/>
      <path class="cls-1" d="M355.25,129.21c13.55,1.56,27.1,3.06,40.63,4.79,1.32.17,2.47,1.71,3.7,2.62-1.21.03-2.46.27-3.63.05-41.36-7.59-81.65-4.25-120.7,11.78-.88.36-1.74.82-2.66.98-.81.15-1.68-.05-2.52-.1.53-.83.87-2.13,1.61-2.41,7.54-2.9,15.02-6.07,22.76-8.32,19.79-5.76,40-8.93,60.81-9.38Z"/>
      <path class="cls-1" d="M354.54,549.9c-22.04-.24-43.51-3.56-64.45-10.34-.72-.23-1.6-.19-2.18-.6-1.51-1.07-2.89-2.31-4.33-3.49,1.67.22,3.42.18,4.98.7,30.25,10.01,61.19,12.82,92.79,9.1,1.38-.16,2.85.47,4.28.73-1.45.72-2.86,1.95-4.36,2.08-8.89.75-17.81,1.24-26.72,1.82Z"/>
      <path class="cls-1" d="M522.39,213.12c-1.66-.34-3.93-.11-4.88-1.12-8.44-8.96-16.33-18.46-25.03-27.14-4.91-4.89-11.11-8.48-16.59-12.82-.96-.76-1.27-2.36-1.88-3.58,1.16.25,2.57.15,3.45.79,17.08,12.49,32.65,26.54,44.9,43.98,0,.02.04-.13.04-.13Z"/>
      <path class="cls-1" d="M540.42,243.04c5.92,7.46,10,15.68,10.93,25.35.18,1.88,1.62,3.62,2.36,5.48,1.45,3.65,2.86,7.31,4.18,11.01.19.53-.2,1.26-.32,1.9-.53-.16-1.26-.17-1.56-.52-.84-.97-1.73-2-2.19-3.16-4.7-11.93-9.35-23.87-13.86-35.87-.32-.85.6-2.16.91-3.26.05-.17.04-.4-.04-.56-.08-.15-.28-.25-.43-.37h0Z"/>
      <path class="cls-1" d="M147.1,357.37c.69,2.04,1.12,2.96,1.31,3.93,2.06,10.72,4.12,21.45,6.08,32.19.2,1.11-.18,2.33-.3,3.5-1.06-.77-2.88-1.39-3.08-2.34-2.3-11.1-4.42-22.24-6.39-33.41-.15-.85,1.16-1.96,2.37-3.86Z"/>
      <path class="cls-1" d="M561.06,318.55c-1.31-7.21-2.62-14.42-3.91-21.64-.23-1.28-.66-2.65-.41-3.86.19-.92,1.31-1.65,2.02-2.46.42.74,1.17,1.47,1.2,2.23.13,2.7.03,5.4,0,8.11,0,.84-.45,2.1-.05,2.46,5.83,5.3,3.46,12.57,4.58,18.97.21,1.21-.67,2.62-1.04,3.94-.91-1.23-2.11-2.34-2.63-3.71-.44-1.16-.09-2.63-.09-3.96.11-.02.22-.05.33-.07Z"/>
      <path class="cls-1" d="M522.53,217.44c.79-.4,1.59-.79,2.38-1.19l.05.18c1.85,2.6,3.83,5.11,5.46,7.84.49.82-.03,2.23-.08,3.37-.87-.46-2.09-.69-2.56-1.41-1.82-2.81-3.4-5.77-5.07-8.68l-.17-.11Z"/>
      <path class="cls-1" d="M430.88,145.34c-.86.37-1.59.99-2.08.84-3.75-1.18-7.47-2.48-11.17-3.82-.41-.15-.67-.77-.93-1.21-.03-.05.44-.58.6-.54,4.11,1.03,8.22,2.09,12.3,3.22.42.12.68.78,1.28,1.5Z"/>
      <path class="cls-1" d="M265.94,531.2c2.32-2.15,11.35-.96,12.48,1.66.13.31.16.99.09,1.01-.84.26-1.81.78-2.55.57-3.37-.97-6.69-2.14-10.02-3.25,0,0,0,.01,0,.01Z"/>
      <path class="cls-1" d="M437.31,150.42c4.08.71,8.17,1.33,12.22,2.21.57.12.88,1.45,1.3,2.23-.87.06-1.85.42-2.58.14-3.68-1.45-7.3-3.06-10.94-4.62v.04Z"/>
      <path class="cls-1" d="M464.18,161.45c.88.24,1.92.26,2.62.76,1.48,1.04,2.79,2.33,4.17,3.51-.39.35-1.04,1.07-1.14,1-1.72-1.21-3.41-2.46-5.01-3.83-.37-.31-.37-1.05-.54-1.59,0,0-.11.15-.11.15Z"/>
      <path class="cls-1" d="M408.69,136.62c1.58.92,3.06,1.78,4.54,2.63-.39.47-.9,1.4-1.15,1.34-2.3-.58-4.55-1.34-6.81-2.05,1-.56,2-1.12,3.43-1.92Z"/>
      <path class="cls-1" d="M463.3,159.04c-.55.16-1.11.49-1.64.44-1.91-.15-3.82-.39-5.71-.74-.09-.02.05-1.3.08-1.99,1.7.63,3.38,1.29,5.1,1.87.7.24,1.47.29,2.21.44,0,.01-.04-.02-.04-.02Z"/>
      <path class="cls-1" d="M215.8,439.73c-.81.41-1.58.95-1.71.83-1.15-1.11-2.2-2.33-3.27-3.52.53-.36,1.43-1.12,1.54-1.01,1.06.97,1.98,2.08,3.45,3.71Z"/>
      <path class="cls-1" d="M540.41,243.03c-1.59-2.01-3.17-4.02-4.76-6.02,0,0-.21-.1-.21-.1,2.57,1.3,5.72,2.14,4.97,6.13,0,0,0,0,0,0Z"/>
      <g>
        <path class="cls-1" d="M515.07,440.56c-2.4,1.43-3.72,2.98.04,4.19,1.85.59,3.89.62,5.84.91v-.24c-1.04,1.32-1.99,2.73-3.18,3.91-.71.7-1.94,1.61-2.66,1.41-1.98-.55-4.05-4.42-5.67-.13-.73,1.94,1.14,4.86.42,6.82-1.24,3.39-3.49,6.44-5.61,9.43-.19.27-2.55-.83-3.78-1.51-2-1.11-10.3,2.59-10.22,4.81.11,3.07,1.78,3.89,4.65,2.7,1.2-.5,2.59-.52,3.9-.76-.72,1.25-1.22,2.72-2.2,3.71-16.26,16.57-34.48,30.5-55.51,40.51-6.68,3.18-13.54,6.05-20.5,8.58-2.01.73-4.62-.35-6.96-.33-1.09.01-2.33.46-3.24,1.1-1.83,1.27-3.28,3.61-5.24,4.11-43.18,11.07-85.5,8.47-126.73-8.73-33.66-14.04-61.04-36.16-82.65-65.42-1.22-1.65-.96-4.56-.97-6.88-.01-3.11,0-5.6-4.34-5.64-1.65-.01-3.88-1.51-4.81-2.99-2.73-4.33-5.18-8.88-7.22-13.57-.64-1.46.4-3.63.59-5.49.14-1.33.13-2.67.19-4-7.5.34-7.75-6.54-9.35-10.71-8.17-21.29-12.17-43.47-11.59-66.34.05-2.01,2.03-3.9,2.77-5.97.42-1.17.14-2.59.18-3.9,1.62-2.18,3.26-4.35,4.81-6.59.1-.15-.52-.8-.8-1.21-1.35,2.09-2.74,4.15-4,6.29-.23.39.07,1.08.13,1.64-1-1.06-2.91-2.16-2.86-3.16.25-5.12.83-10.24,1.71-15.28.21-1.21,2.2-2.02,3.07-3.23.51-.72.92-2.34.53-2.74-3.39-3.46-3.31-6.14,1.05-8.79.87-.53,1.18-2.98.85-4.32-1.64-6.65.28-12.16,4.77-17.03.47-.51,1.22-1.07,1.27-1.65,1.09-14.41,8.72-26.1,15.89-37.93,9.44-15.56,21.01-29.42,34.54-41.61,1.12-1.01,2.92-2.89,3.5-2.6,6.03,3.05,5.85-.47,5.67-4.75-.04-.88,1.64-2.04,2.74-2.71,12.44-7.68,24.88-15.37,37.45-22.84,1.82-1.08,4.32-.99,6.49-1.52,1.61-.39,3.5-.51,4.72-1.45,8.55-6.57,18.34-8.88,28.88-9.39,2.73-.13,5.31-2.26,8.09-2.77,27.59-5.06,55.06-4.37,82.26,2.54,2.71.69,4.85,3.52,7.36,5.2,1.43.96,4.03,2.65,4.47,2.24,4.95-4.56,9.33-.93,13.61.84,6.57,2.7,13.09,5.62,19.32,9.02,4.18,2.29,10.22,2.95,10.73,9.59,0,.06,1.71-.02,2.62,0,.96.01,1.93.06,2.89.09-.5.82-.94,1.69-1.53,2.43-.92,1.16-1.95,2.22-2.93,3.33,1.76.03,4.09.79,5.18-.05,3.81-2.93,6.62-1.41,9.42,1.25,10.87,10.36,21.93,20.54,32.46,31.23,3.19,3.24,4.67,8.09,7.34,11.92,4.4,6.32,9.18,12.36,13.68,18.61,1.21,1.68,2.09,3.63,2.93,5.54,1.13,2.54,4.76,5.54-1.07,7.17-.51.14-.84,1.61-.87,2.47,0,.28,1.22.71,1.92.85.73.14,1.59-.2,2.26.04,1.23.45,2.55.99,3.47,1.86.43.41.22,2.39-.06,2.47-1.39.41-2.91.56-4.37.54-.64-.01-1.26-.69-1.91-1.03-1.34-.69-2.7-1.35-4.05-2.02-.24.61-.83,1.35-.67,1.82.72,2.07,1.12,4.84,2.64,5.9,2.17,1.5,5.21,1.79,7.92,2.43.52.12,1.52-.33,1.76-.79.48-.92.59-2.03.86-3.06.61,1.11,1.42,2.16,1.8,3.34,2,6.13,4.07,12.26,5.74,18.48.74,2.76,3.39,6.22-2.27,7.86-2.24.65-.12,10.29,2.4,11.24.39.15,1.05-.05,1.42-.32,1.91-1.39,1.99-1.43,2.35,1.01,3.71,25.09,3.24,50.12-3.04,74.69-3.19,12.48-8.33,24.47-12.68,36.65-.42,1.17-1.45,2.12-2.19,3.18-.76-1.15-1.37-2.45-2.32-3.41-2.17-2.19-4.49-4.24-6.81-6.27-.26-.23-.93.01-1.4.04.14.88.04,1.91.47,2.61,1.58,2.55,3.68,4.84,4.97,7.52,3.07,6.37,2,10.19-3.69,15.17l-.14.18c3.18-5.54-3.68-2.38-4.14-4.78-2.3,1.95-3.16.76-4.6-1.37-.86-1.26-4.4-4.07-4.47,1.29l.2.08c-1.84-2.67-2.27-5.08-.41-8.28,14.23-24.43,21.65-50.98,23.21-79.08.25-4.59,3.41-5.89,5.37-8.6,1.6-2.22,2.31-3.92-1.5-3.54-2.78.28-3.51-.66-3.62-3.41-.77-19.1-4.58-37.6-11.16-55.57-.55-1.51.83-3.73,1.34-5.61.41-1.53.87-3.05,1.3-4.57-1.2.22-2.43.71-3.58.57-1.29-.16-3.23-.55-3.66-1.43-3.64-7.48-6.92-15.14-10.49-22.66-1.02-2.15-3.48-3.99.39-5.79.44-.21.29-1.69.41-2.58-.99.13-2.46-.1-2.89.46-3,3.96-4.44,1.5-6.09-1.2-2.36-3.87-6.82-6.68-6.02-12.16.04-.24-1.24-.67-1.9-1.02,0,0,.14.13.14.13-.45-1.16-.74-3.22-1.37-3.33-9.27-1.66-13.85-9.71-20.34-14.98-34.97-28.37-74.68-42.39-119.77-40.73-5.3.19-10.59,1.04-15.89,1.12-1.85.03-3.72-1.32-5.57-2.07-1.88-.76-3.7-1.87-5.65-2.24-1.29-.25-2.77.53-4.17.86.87,1.01,1.68,2.1,2.65,3.01.66.62,1.54.99,2.32,1.48-.84.32-1.66.77-2.53.95-24.74,5.03-47.36,14.94-68.05,29.38-1.02.71-3.11.71-4.33.19-3.42-1.49-10.93,2.67-10.88,6.31,0,.49.38,1.35.71,1.42,6.7,1.31.58,3.12-.07,3.83-7.17,7.86-15.05,15.14-21.73,23.38-19.85,24.47-31.51,52.63-36.03,83.78-.21,1.47-.81,2.88-1.22,4.32-.79-1.03-1.41-2.27-2.41-3.02-.7-.52-2.46-.84-2.78-.45-2.19,2.62-4.32,5.34-6,8.3-.39.68,1.09,2.42,1.71,3.67,1.46-1.01,3.18-1.8,4.28-3.11.88-1.05,1.02-2.73,1.48-4.13,1.2,1.97,2.91,3.81,3.45,5.94.48,1.89-.49,4.11-.55,6.19-1.04,34.85,6.59,67.58,24.44,97.65,25.05,42.22,61.45,70.25,108.94,81.99,59.98,14.83,114.1,1.46,161.38-38.57,3.91-3.31,7.28-7.24,11.12-10.63,1.36-1.2,3.39-1.63,5.1-2.46.71-.35,2.01-1.06,1.96-1.19-1.94-5.07,2.78-7,4.8-10.11,2.58-3.98,5.45-7.79,8.35-11.55.45-.58,1.9-.99,2.57-.71,3.22,1.35,6.33,2.97,9.48,4.49l-.12-.2ZM517.94,242.09c1.17-.94,2.34-1.88,3.51-2.82-.75-.52-1.49-1.44-2.26-1.46-.96-.03-1.95.67-2.93,1.06.6,1.11,1.2,2.22,1.8,3.34-.16.04-.35.05-.48.13-.06.04-.03.24-.04.36.13-.2.27-.4.4-.61ZM302.54,161.35c-1.88-1.61-3.17-3.61-4.31-3.52-2.38.18-4.81,1.22-6.93,2.41-.82.46-.87,2.3-1.28,3.52,1.09-.11,2.19-.19,3.28-.32,1.85-.23,3.71-.44,5.55-.79.97-.19,1.9-.65,3.7-1.3ZM470.74,476.42c-1.35,1.18-2.21,1.93-3.06,2.68,2.05,1.13,4.04,2.44,6.21,3.27.59.23,1.73-.98,2.62-1.52-1.79-1.38-3.58-2.75-5.76-4.43ZM188.3,421.01c-.43-1.59-.71-2.62-.99-3.65-.77,1.04-1.63,2.02-2.27,3.14-.65,1.13-1.4,2.36-1.52,3.6-.12,1.24.5,2.56.79,3.84,1.37-2.38,2.74-4.75,3.99-6.92ZM216.05,214.7c1.66-1.14,3.07-2.11,4.48-3.08-1.24-.61-2.59-1.88-3.68-1.68-1.64.3-3.09,1.63-4.62,2.53,1.13.66,2.26,1.32,3.82,2.23ZM529.05,286.03c2.15-1.11,3.46-1.79,4.76-2.47-1.37-.97-2.63-2.28-4.15-2.73-.65-.19-2.27,1.29-2.61,2.3-.21.62,1.17,1.77,1.99,2.9ZM535.52,299.52c1.96-1.33,3.95-2.68,5.94-4.03-.93-.36-2.07-1.25-2.75-.98-2.08.83-3.97,2.11-5.94,3.22.66.43,1.32.86,2.75,1.79ZM537.57,294.55c1.14-2.15,2.31-3.48,2.02-4.01-.62-1.15-2-1.9-3.06-2.81-.6.89-1.78,1.87-1.66,2.66.17,1.12,1.28,2.1,2.7,4.17ZM534.25,385.07c1.34-.69,2.33-1.19,3.31-1.7-1.07-1.07-2.01-2.73-3.26-3.02-1-.23-2.37,1.23-3.58,1.94,1.08.85,2.17,1.7,3.53,2.77ZM540.74,316.59c.62-1.99,1.54-3.38,1.22-4.35-.37-1.1-1.86-1.82-2.86-2.71-.51.6-1.57,1.45-1.43,1.77.71,1.6,1.73,3.07,3.07,5.29ZM223.25,470.3c-1.53-1.16-2.79-2.26-4.23-3.06-.27-.15-1.23.94-1.87,1.45,1.34,1.42,2.67,2.84,4.01,4.26.53-.68,1.06-1.35,2.08-2.65ZM314.35,160.77c-1.98-1.12-2.95-2.11-3.53-1.91-1.2.39-2.19,1.42-3.26,2.18.47.64,1.09,1.89,1.4,1.82,1.46-.34,2.83-1.04,5.4-2.08ZM549.34,329.06c-1.53-1.24-2.45-2.51-3.06-2.37-1.25.28-2.32,1.32-3.47,2.05.79.56,1.57,1.53,2.39,1.57,1.08.06,2.21-.62,4.14-1.25ZM454.78,177.37c-1.56-1.07-2.59-2.01-3.8-2.46-.31-.11-1.19,1.31-1.8,2.03,1.08.85,2.1,1.81,3.29,2.45.24.13,1.14-.96,2.32-2.02ZM442.21,170.21c-.95-.74-1.83-1.51-1.89-1.45-.97.97-1.84,2.03-2.73,3.08.55.35,1.37,1.12,1.61.97.98-.61,1.79-1.5,3.01-2.6ZM530.89,413.28c-2.6-.73-3.71-1.43-4.51-1.18-1.06.34-1.88,1.43-2.8,2.2.66.37,1.39,1.14,1.95,1.03,1.33-.26,2.57-.94,5.36-2.06ZM268.83,181.17c-1.63-1.06-2.63-2.17-3.18-1.97-1.03.36-1.81,1.47-2.69,2.26.8.63,1.6,1.75,2.4,1.75.92,0,1.83-1.01,3.47-2.03ZM538.77,392.2c-1.44-.94-2.33-1.97-3.17-1.93-.73.03-1.41,1.27-2.11,1.97.91.5,1.78,1.24,2.75,1.4.58.1,1.31-.71,2.53-1.44ZM506.19,462.01c.24-.59.48-1.18.72-1.76-.8-.28-1.82-1-2.36-.74-1.2.58-2.16,1.66-3.22,2.53.69.45,1.42,1.3,2.06,1.24.96-.09,1.87-.82,2.79-1.27ZM490.22,475.63c-1.11-.81-1.78-1.69-2.4-1.65-.89.05-1.74.78-2.61,1.21.76.69,1.42,1.68,2.31,1.96.54.17,1.42-.75,2.71-1.51ZM545.46,340.96c-1.91-.74-3.2-1.29-4.54-1.68-.1-.03-.84,1.48-.75,1.55,1.01.75,2.08,1.47,3.24,1.91.29.11.97-.81,2.04-1.78ZM508.06,221.34c-1.73-.69-2.62-1.29-3.54-1.33-.74-.03-1.52.61-2.28.95.96.71,1.84,1.65,2.91,2.03.51.18,1.39-.75,2.9-1.65ZM176.42,376.18c-1.78-.61-2.66-1.1-3.57-1.16-.53-.03-1.1.62-1.65.96.54.8,1.02,1.67,1.69,2.34.11.11,1.08-.64,3.53-2.15ZM545.21,312.49c-.09-.11-.19-.23-.28-.34-.11.1-.31.18-.32.29,0,.1.17.23.26.34.11-.1.23-.19.34-.29Z"/>
        <path class="cls-1" d="M413,345.71c-4.91,1.64-3.98,1.28-1.82,5.12,1.96,3.47,1.43,8.35,2,12.6-.53.07-1.22-.04-1.56.25-.66.57-1.71,1.83-1.57,2.01,1.5,1.9,3.37,3.52,4.78,5.47,1.84,2.55-.69,11.5-3.64,13.28-1.95,1.17-4.41,1.74-5.97,3.27-3.42,3.35-8.65,6.12-5.47,12.57.42.86-.29,3.28-.98,3.52-7.2,2.47-7.26,10.63-12.26,14.96-5.52,4.78-10.46,9.91-18.69,8.74-1.4-.2-2.95.6-4.42.97-3.48.87-6,.44-5.76-4.04.04-.72-.14-1.53-.44-2.19-4.62-10.26-8.97-20.65-14.06-30.67-2.29-4.5-2.64-8.6-1.02-13.05,2.24-6.15,4.6-7.2,11.05-5.68,1.5.35,3.19-.13,4.8-.23-1.03-1.17-1.97-2.43-3.12-3.47-.83-.75-1.95-1.77-2.89-1.72-7.15.4-7.23-5.45-9.39-9.83-1.97-3.98-4.9-7.5-7.43-11.19-1.36-1.98-4.43-4.35,1.3-4.26.91.01,1.84-1.02,2.76-1.57-.73-.7-1.71-1.27-2.13-2.12-.93-1.87-2.37-3.96-2.19-5.83.37-3.87-1.21-5.44-4.62-6.49-3.21-.98-6.13-3.32-9.35-3.73-4.07-.52-8.34.08-12.46.62-6.77.88-13.77,3.73-20.15,2.64-4.52-.77-8.38-6.46-12.11-10.35-1.75-1.83-2.05-5.07-3.83-6.84-3.94-3.92-2.69-8.09-1.77-12.53.9-4.36,1.44-8.81,2.1-13.22.08-.55-.27-1.32,0-1.66,3.58-4.58,6.75-9.64,11.02-13.46,3.38-3.02,8.25-4.32,12.24-6.72,1.62-.97,4.94-2.83.09-4.43-.13-.04-.05-2.04.38-2.27,4.77-2.49,8.25-6.64,14.97-6.28,7.9.42,15.95-2.14,23.96-3.3,1.17-.17,2.42.25,3.64.4-.32,1.3-.65,2.59-.97,3.9-.33,1.37-.65,2.75-.97,4.12,1.3.18,2.64.19,3.88.58,4.73,1.46,9.48,2.91,14.13,4.62,3.06,1.13,5.54,2.34,7.27-2.1.42-1.07,4.37-1.66,6.22-1.05,2.31.77,6.89.23,5.56,5.29-.21.8.15,1.74.25,2.62.94-.48,2.66-.89,2.7-1.45.58-6.61,6.26-1.58,8.63-3.9,1.23,2.42,2.36,4.9,3.73,7.25.75,1.29,1.76,2.54,2.91,3.48,1.41,1.15,3.35,1.73,4.52,3.04.38.43,6.41,5.2-1.35,3.81-.12-.02-1.18,2.36-.79,2.94,1.61,2.38,2.59,8.43,6.85,1.92.05-.08,2.17.67,2.54,1.42,2.81,5.66,5.44,11.41,8.06,17.17.52,1.14.73,2.42,1.06,3.64.54,2.02.59,4.39,3.93,2.33.82-.5,3.63.7,4.35,1.85,2.31,3.71,4.89,5.22,9.37,3.83,2.93-.91,6.21-.7,9.34-.99-.66,3.05-.92,6.26-2.07,9.11-1.62,4.02-3.84,7.81-5.93,11.62-.53.97-1.4,1.88-2.33,2.48-3.56,2.3-9.74,1.97-8.67,8.82-2.2-.08-4.43,0-6.6-.29-1.34-.18-2.61-.92-3.9-1.41.54,1.29,1.1,2.58,1.61,3.89.27.7.44,1.45.65,2.17l.02.03ZM353.36,344.19c-.39.39-.77.78-1.16,1.16,0,0-.13-.14-.13-.15.39-.38.78-.77,1.17-1.16.46-.43.92-.87,1.38-1.3,2.47-1.18,4.76-2.45,3.07-5.8l.13.07c-1.03,1.94-2.06,3.88-3.09,5.83-.46.45-.91.9-1.37,1.35ZM381.91,386.37s-.15-.16-.14-.16l.27-.07-.12.23ZM282.72,279.62c-.28-.1-.56-.19-.84-.29.1.28.19.57.29.85.69,1.43,1.37,2.86,2.13,4.26.03.06.85-.31,1.3-.48-.78-1.41-1.54-2.82-2.35-4.21-.06-.11-.35-.09-.54-.12ZM386.64,343.81c.1.46.21.91.31,1.37.15-.09.31-.18.46-.27-.3-.33-.59-.67-.89-1-1.01-1.93-2.01-3.87-3.13-5.73-.04-.06-1.42.7-2.18,1.08,1.45,1.49,2.89,3.01,4.38,4.46.2.19.7.07,1.05.09ZM395.53,356.65c3.67.51,6.57.27,4.64-4.72.68-.9,1.37-1.79,2.05-2.69-1.34-.65-2.68-1.31-4.02-1.96,3.79-3.33,3.42-7.66,2.49-11.89-.21-.97-2.14-1.56-3.28-2.32-.5,1.03-1.06,2.04-1.49,3.1-.59,1.45-1.1,2.94-1.62,4.42-1.38,3.88-1.12,6.73,4.04,6.55.29,1.22.57,2.44.86,3.65-7.69-1.74-2.43,3.97-3.48,6.04-1.14-.58-2.27-1.16-3.41-1.74-.2.45-.69,1.1-.54,1.32,1.33,1.98,2.72,3.91,4.24,5.75.14.17,1.23-.43,1.88-.67-.79-1.61-1.57-3.22-2.36-4.83ZM405,326.55c-.55,1.18-1.33,2.32-1.58,3.56-.3,1.48-.23,3.07-.09,4.59.02.25,1.65.7,1.75.55.81-1.23,2.06-2.64,1.96-3.9-.13-1.61-1.38-3.14-2.15-4.7.45-7.86-5.71-13.75-13.25-12.51-.87.14-1.51,1.43-2.37,2.02-.54.37-1.28.42-1.94.62.03-1.06.07-2.12.1-3.18-1.14.39-3.24.75-3.25,1.19-.1,2.53-.4,5.45.7,7.54,1.09,2.07,3.69,4.65,5.75.13,1.44-3.15,3.49-1.85,5.58-.65,2.89,1.66,5.87,3.17,8.8,4.76ZM385.18,310.58c1.67-.58,3.34-1.17,5.02-1.75-1.21-1.02-2.37-2.12-3.66-3.03-2.12-1.49-4.07-2.83-1.6-5.71.39-.46-.38-1.92-.62-2.91-.97.28-2.63.35-2.8.88-1.05,3.35-3.47,3.32-6.29,3.35-1.21.01-2.45,1.32-3.58,2.17-2.72,2.04-5.13,4.72-8.14,6.12-4.13,1.92-4.56,4.02-1.96,7.38,1.68,2.17,11.13,3.48,12.89,1.5.41-.46-.11-2.47-.8-3.02-.71-.57-2.25,0-3.24-.4-.63-.26-.91-1.37-1.35-2.1.8-.22,1.58-.59,2.39-.64,1.89-.13,5.19.44,5.45-.22,1.87-4.84,5.43-1.56,8.26-1.6ZM372.43,392.88c-1.32-1.41-2.6-3.58-3.32-3.4-2.07.5-4.74,1.48-5.63,3.12-1.22,2.22-.28,5.68-1.58,7.8-2.51,4.12.64,4.32,2.89,5.27.93.4,2.03.41,3.05.6-.32-.97-.38-2.16-1-2.86-1.85-2.09-3.2-3.56.72-5.11,1.75-.69,2.84-3.06,4.88-5.42ZM314.5,270.54c1.32-.82,4.09-1.63,4.29-2.86.38-2.36-.69-4.95-1.16-7.45-2.14,1.3-4.54,2.33-6.33,4-1.2,1.12-1.54,3.16-2.26,4.78,1.55.43,3.1.86,5.46,1.52ZM388.1,348.94c-.51,1.6-1,2.29-.87,2.84,1.02,4.16,1.86,8.4,3.41,12.36.64,1.65,2.75,2.88,4.43,3.9.6.37,1.92-.46,2.92-.74-.37-.8-.53-2.01-1.15-2.33-5.38-2.78-6.23-8.11-7.66-13.13-.19-.66-.48-1.29-1.08-2.9ZM287.97,273.12s-.06,0-.09.01c.11.74.04,1.59.37,2.22.88,1.68,1.68,3.55,3.04,4.75.49.43,2.48-.82,3.78-1.31-1.11-1.56-2.02-3.33-3.39-4.62-1.43-1.35-2.93-2.07.52-2.2.28-.01.99-2.47.57-3.32-.41-.84-2.13-1.6-3.08-1.42-.87.16-1.82,1.55-2.11,2.58-.28.99.23,2.2.4,3.32ZM347.32,278.72c-2.42-1.33-4.35-2.96-6.48-3.31-.95-.15-3.56,2.88-3.29,3.44,1.17,2.42,3.12,4.45,4.79,6.63,1.49-2.02,2.98-4.04,4.98-6.75ZM413.62,330.62c-1.27,1.34-3.06,3.04-2.96,3.17,1.36,1.65,3.01,4.27,4.56,4.25,1.83-.02,3.63-2.37,5.45-3.71-2.11-1.11-4.21-2.22-7.05-3.71ZM327.92,319.67c3.42-1.2,5.92-2.08,8.41-2.96-2.53-1.65-5.06-3.31-7.59-4.96-.74,1.68-1.71,3.3-2.11,5.06-.18.78.78,1.83,1.28,2.87ZM381.77,296.1c-2.5-1.72-4.22-3.77-5.34-3.48-1.76.44-3.12,2.47-4.65,3.82,1.69,1.2,3.25,2.93,5.12,3.39.95.23,2.47-1.81,4.87-3.73ZM351.95,316.57c-1.42-4.99-2.57-9.43-4.05-13.75-.24-.69-1.94-1-3.02-1.18-.19-.03-1.11,1.68-.88,2.25,1.71,4.15,3.57,8.24,5.53,12.28.25.52,1.27.79,1.98.92.23.04.6-.73.43-.51ZM270.07,301.61c3.64,1.69,6.24,2.95,8.91,4.04.29.12.99-.78,1.5-1.21-2.42-2.28-4.83-4.55-7.25-6.83-.66.83-1.31,1.66-3.16,4ZM419.13,319.24c-.96-.86-1.69-1.52-2.42-2.17-.98,1.18-2.81,2.42-2.74,3.53.12,1.77,1.51,3.46,2.36,5.18.83-1.95,1.67-3.89,2.8-6.53ZM366.47,336.18c1.51-1.15,2.71-2.06,3.91-2.98-1.4-1.09-2.72-2.86-4.23-3.03-1-.12-2.27,2.05-3.41,3.19,1.09.82,2.18,1.64,3.73,2.82ZM368.95,279.32c2.22-.88,6.75.68,3.86-4.03-.67-1.1-4.66-.25-7.12-.1-.83.05-1.61.71-2.42,1.09.3.54.47,1.4.91,1.58,1.54.61,3.17.99,4.77,1.46ZM376.28,387.59c-1.6,2.48-3.16,4.24-2.89,4.6,1.26,1.66,3.03,2.92,4.62,4.33.6-.73,1.85-1.69,1.69-2.14-.68-1.91-1.78-3.67-3.42-6.79ZM366.66,297.41c-2.33-1.88-3.69-3.63-5.37-4.03-.74-.18-2.13,2.39-3.23,3.7,1.47.9,2.84,2.08,4.44,2.59.7.22,1.83-.94,4.16-2.26ZM341.35,316.69c-.86,2.39-1.48,3.4-1.27,3.63,1.97,2.13,4.08,4.15,6.22,6.11.09.09.94-.65,1.44-1-1.84-2.52-3.69-5.04-6.39-8.74ZM401.71,373.95c.12-.01.25-.03.37-.04-.18-2.21-.3-4.42-.59-6.61-.05-.4-.71-.88-1.17-.99-.26-.06-.99.55-.98.85.04,3.11.09,6.22.38,9.31.06.68,1.05,1.28,1.61,1.91.24-.73.63-1.45.7-2.2.06-.72-.2-1.48-.32-2.22ZM351.46,347.11c-.53,2.13-.96,2.85-.8,3.37.49,1.59.98,3.28,1.92,4.61.72,1.03,2.12,1.59,3.21,2.36-.28-1.14-.4-2.35-.86-3.42-.84-1.94-1.88-3.79-3.47-6.93ZM282.69,313.68c-1.32-1.8-2.37-3.24-3.42-4.68-.56.73-1.72,1.66-1.56,2.15.54,1.65,1.56,3.14,2.4,4.7.72-.61,1.44-1.21,2.58-2.17ZM388.71,336.53c1.06-2.25,1.84-3.56,2.24-4.97.12-.41-1.19-1.68-1.28-1.62-1.37.83-2.65,1.81-3.95,2.76.74.94,1.47,1.89,2.99,3.83ZM293.98,285.59c-1.41.88-2.54,1.58-3.66,2.28,1.32.87,2.59,2.28,3.98,2.42,1.02.1,2.21-1.48,3.32-2.31-1.09-.72-2.19-1.44-3.64-2.39ZM347.84,266.95c-1.6-1.41-3.07-2.99-3.27-2.84-1.24.91-2.2,2.21-3.25,3.39.75.62,1.62,1.85,2.23,1.74,1.26-.25,2.39-1.21,4.29-2.28ZM359.97,303.34c-1.62-.41-3.04-1.24-3.7-.83-1.05.65-1.88,2.05-2.22,3.29-.21.75.69,1.81,1.09,2.73,1.04-1.12,2.09-2.24,4.83-5.19ZM349.71,337.11c1.17-.98,1.8-1.5,2.42-2.02-1.55-1.21-3.04-2.53-4.73-3.52-.28-.16-1.41,1.13-2.15,1.75,1.43,1.22,2.87,2.44,4.45,3.79ZM345.2,375.25c-.04.45-.08.91-.12,1.36,1.23.6,2.48,1.71,3.69,1.66,1.18-.05,2.32-1.28,3.48-1.99-1.04-.65-2.03-1.7-3.14-1.84-1.25-.16-2.6.5-3.91.81ZM328.36,259.34c-2.98-1.06-4.85-1.83-6.8-2.31-.32-.08-.95,1.13-1.44,1.75,1.52.85,2.97,1.93,4.6,2.44.66.21,1.7-.83,3.64-1.88ZM353.01,325.72c1.31-1.02,2.2-1.72,3.1-2.43-.89-.79-1.99-2.36-2.61-2.19-1.08.3-1.87,1.68-2.77,2.6.64.56,1.28,1.13,2.28,2.01ZM394.56,392.64c.53-.71,1.05-1.42,1.58-2.13-1.54-.68-3.03-1.5-4.63-1.93-.37-.1-1.71,1.51-1.56,1.8.66,1.27,1.63,2.41,2.66,3.42.14.14,1.28-.75,1.95-1.16ZM403.34,289.05c-2.04-.65-3.08-1.34-3.95-1.16-.93.19-1.69,1.19-2.53,1.83.81.57,1.68,1.67,2.42,1.59,1.07-.11,2.05-1.08,4.06-2.27ZM361.63,265.92c-1.89-.72-3.14-1.36-4.46-1.59-.41-.07-1.01.95-1.52,1.47,1.19.73,2.32,1.64,3.6,2.1.38.14,1.21-.97,2.38-1.98ZM372.33,267.04c-1.78-.97-2.8-1.91-3.87-1.97-.65-.04-1.37,1.3-2.06,2.02.82.54,1.62,1.45,2.46,1.5.87.05,1.79-.75,3.47-1.55ZM321.57,280.68c1.25.98,2.02,2.05,2.83,2.08.65.03,1.96-1.26,1.9-1.84-.09-.81-1.12-1.98-1.88-2.1-.7-.11-1.58.98-2.85,1.86ZM295.12,300.94c-1.45-.93-2.57-2.08-3.04-1.85-.99.47-1.65,1.66-2.44,2.55.93.47,1.85,1.28,2.79,1.3.71,0,1.43-1.01,2.69-2ZM364.9,265.19c1.07-.97,1.84-1.67,2.6-2.36-.79-.52-1.62-1.51-2.37-1.45-.88.08-1.69,1.05-2.53,1.64.7.66,1.4,1.32,2.3,2.17ZM329.13,270.25c-1.64-1.03-2.6-1.92-3.71-2.2-.5-.13-1.31.96-1.98,1.5.77.87,1.4,2.13,2.35,2.46.65.22,1.75-.87,3.34-1.75ZM309.36,317.5c-1.07-.82-2.02-1.54-2.96-2.27-.24.41-.79,1.05-.69,1.18.77.95,1.66,1.8,2.51,2.69.29-.41.58-.82,1.14-1.6ZM377.05,343.3c-1.81,1.9-2.99,2.77-2.86,3.08.37.87,1.29,1.51,1.99,2.24.67-.76,1.69-1.43,1.9-2.3.19-.75-.54-1.73-1.03-3.03ZM361.94,381.32c-1.24-.66-1.99-1.38-2.73-1.37-.71.01-1.41.77-2.12,1.2.73.66,1.37,1.66,2.2,1.85.57.13,1.41-.85,2.64-1.68ZM285.99,270.79c-1.24,1.66-2.15,2.45-2.42,3.41-.14.52.82,1.34,1.28,2.02.77-.65,1.79-1.17,2.23-2,.25-.48-.42-1.45-1.09-3.43ZM356.79,272.18c-1.15,1.1-2.09,1.68-2.49,2.53-.17.35.82,1.25,1.29,1.9.83-.61,1.85-1.08,2.4-1.88.22-.31-.6-1.35-1.2-2.55ZM352.88,292.07c-1.03-.81-1.89-1.88-2.31-1.73-.8.29-1.34,1.28-1.99,1.98.64.5,1.3,1.41,1.93,1.4.68,0,1.34-.88,2.38-1.65ZM303.42,263.65c.52-1.16,1.28-2.11,1.05-2.51-.45-.8-1.44-1.29-2.2-1.9-.52.65-1.61,1.62-1.45,1.9.47.85,1.42,1.44,2.61,2.52ZM291.62,296.7c.62-1.31,1.35-2.12,1.21-2.74-.15-.66-1.06-1.49-1.74-1.59-.5-.07-1.72,1.14-1.63,1.39.35.89,1.12,1.61,2.15,2.94ZM276.47,296.15c.48-.15.8-.24,1.12-.33-.26-.43-.46-.92-.81-1.25-.12-.12-.61.14-.93.23.21.46.42.92.62,1.36ZM393.14,334.94c-.1-.45-.18-.77-.25-1.09-.46.2-1.08.28-1.32.63-.17.25.16.85.26,1.3.45-.29.9-.57,1.31-.84ZM386.44,364.87c-.15-.51-.25-.83-.34-1.15-.42.22-.88.38-1.22.68-.1.09.16.57.25.88.44-.14.88-.27,1.31-.41ZM391.57,278.39c-.15.03-.29.05-.44.08.06.22.12.44.18.66.12-.1.3-.17.34-.3.04-.12-.05-.29-.08-.44ZM358.08,345.31c-.12-.34-.24-.68-.37-1.01-.3.15-.79.25-.85.46-.08.3.17.68.29,1.02.3-.15.6-.31.93-.47ZM408.02,306.47c-.11-.28-.22-.56-.32-.84-.13.1-.37.23-.36.31.05.29.19.56.3.85.13-.1.25-.21.38-.31ZM320.83,309.87c-.15.08-.43.19-.42.24.06.29.19.57.29.86.14-.09.42-.2.41-.25-.05-.29-.18-.56-.28-.84Z"/>
        <path class="cls-1" d="M373.8,203.71c3.23,1.64,4.09-1.3,5.17-3.01,1.49-2.35,2.43-5.06,3.61-7.61,0,0,.16.17.16.17,4.38-.6,8.77-1.2,13.16-1.81.88,0,1.75.02,2.62.03-.04-.24-.07-.47-.11-.71-.84.23-1.69.46-2.53.69.13-1.24.27-2.48.4-3.72l.14.16c8.91,2.99,18.3,5.01,26.65,9.14,43.48,21.53,71.38,56.13,84.35,102.83.2.71.57,1.37.86,2.05l-.05-.03c-2.42-4.56-4.72-9.19-7.31-13.65-1.81-3.11-4.04-5.99-6.08-8.97-.79,3.08-1.41,6.21-2.41,9.22-.89,2.67.34,9.25-5.9,3.06-2.87-2.84-5.03-.12-5.6,3.28l.16-.11c-1.37-4.21-2.65-8.46-4.22-12.59-.21-.55-2.18-.24-2.84-.86-1.66-1.53-4.2-3.3-4.31-5.1-.43-7.09-5.19-6.51-9.91-6.46-.49,0-.99-.36-1.49-.55,2.75-5.05-2.18-2.91-3.55-3.43-2.63-1-7.21-3.65-4.96,3.29.02.06-1.54,1-1.97.78-2.91-1.52-5.72-3.25-8.57-4.91l.13.12c-.75-1.09-1.33-2.38-2.29-3.21-1.76-1.53-7.25-.71-3.25-5.58-.89-.51-1.85-1.51-2.65-1.39-.9.13-1.55,1.54-2.5,1.9-2.13.81-4.38,1.32-6.58,1.95,1.53,1.88,3.17,3.67,4.55,5.65,3.13,4.48,6.06,9.1,9.2,13.57,2.41,3.44,3.51.27,4.8-1.17,1.24-1.38,2.3-2.93,3.44-4.4,1.71,2.13,3.56,4.16,5.06,6.43,1.01,1.51,2.5,3.67,2.07,4.98-.94,2.86-2.35,6.29-4.67,7.85-6.3,4.24-13.12,7.74-19.84,11.32-3.43,1.83-4.41-1.13-5.07-3.45-3.84-13.5-13.15-23.37-22.19-33.36-1-1.11-3.68-.71-5.58-1.01l-.06.22c1.46-3.38-4.86-7.98,1.88-10.86,1.08-.46.94-4.55.79-6.93-.17-2.6-1.47-3.7-4.62-3.16-3.5.61-7.37.63-10.76-.29-2.09-.56-3.58-3.35-5.34-5.13,1.55-.97,2.98-2.39,4.66-2.84,4.77-1.26,9.51-4.14,14.64-.73.96.64,2.66.5,3.92.25,1.56-.3,3.02-1.1,4.52-1.68-1.11-1.35-2.06-2.89-3.37-4-2.24-1.89-7.48-1.03-5.72-6.46-2.26.56-4.54,1.05-6.78,1.72-.54.16-.92.89-1.37,1.36-1.96-2.82-4.46-4.85-7.2-1.41-1.65,2.07-2.01,5.12-3.2,7.62-.44.92-1.57,2.14-2.41,2.15-4.04.06-8.08-.3-7.25,5.82.09.68-.66,1.48-1.02,2.22-.43-.55-.97-1.05-1.26-1.67-2.95-6.43-7.72-11.17-13.84-14.49-1.38-.75-3.37-.37-5.07-.51.62,1.4.95,3.08,1.94,4.14,1.51,1.62,3.56,2.71,5.19,4.23.56.52.56,1.64.82,2.48-.68-.28-1.45-.45-2.03-.87-3.35-2.37-6.65-4.82-10-7.2-.59-.42-1.3-.81-2-.94-5.06-.93-18.51,5.74-21.39,10.57-3.23,5.41-5.58,5.7-10.54,1.82-.95-.74-2.95-.28-4.44-.1-.66.08-1.24.84-1.86,1.3.06-.93-.15-1.98.23-2.76,2.26-4.71,3.97-9.35,11.3-8.26,7,1.04,8.69-1.91,6.62-8.61-.12-.39,0-1.19.22-1.29,6.84-2.93,13.53-6.34,20.61-8.53,6.74-2.08,13.84-2.97,20.86-.14.67.27,3.24-2.28,3.19-2.36-2.42-3.63,1.91-3.61,2.82-5.34l-.16-.04c1.92.55,3.82,1.23,5.78,1.52.35.05.94-1.49,1.43-2.29l.18.1ZM406.24,203.29l-.16-.02.36-.06s-.17.05-.19.08ZM414.18,241.94c-.26-.24-.51-.47-.77-.71.1.39.21.78.31,1.16.34.19.69.38,1.03.57-.19-.34-.38-.69-.58-1.03ZM403.86,191.79c-.12-.15-.22-.33-.38-.42-.09-.06-.26.02-.4.04.31.08.61.16.92.23.32.64.65,1.28.97,1.91.21-.18.41-.35.62-.53-.58-.42-1.15-.83-1.74-1.24ZM446.13,226.38c-1.29.98-2.81,1.77-3.79,3-.66.83-.77,2.29-.66,3.43.04.37,2.06,1.06,2.33.78.92-.94,1.74-2.18,2.06-3.44.31-1.22-.04-2.6-.11-3.92.36-.66.72-1.32,1.08-1.97l-.45-.21c-.15.78-.31,1.56-.46,2.34ZM409.64,259.25c-.47.6-1.28,1.17-1.33,1.8-.1,1.31.2,2.66.33,3.99,1.1-.95,2.45-1.74,3.13-2.93.21-.36-1.46-1.79-2.27-2.73,2.55-3.81-.8-3.87-2.93-4.23-1.15-.19-2.46.64-3.7,1.01,1.34,1.16,2.58,2.49,4.07,3.39.62.37,1.79-.17,2.7-.29ZM386.97,220.11c-.14.67-.28,1.34-.42,2l.52.08c-.07-.67-.14-1.34-.2-2.01.73-1.11,1.46-2.21,2.19-3.32-1.19-.12-2.63-.72-3.52-.27-1.96,1.01-3.66,2.55-5.46,3.87,2.31-.13,4.61-.25,6.89-.36ZM425.22,236.08c1.54-2.13,1.32-1.84-1.03-3.57-2.17-1.59-3.91-3.83-5.61-5.97-.87-1.1-.99-3.52-1.87-3.76-2.36-.63-4.95-.4-7.44-.52.3,1.99.5,4,.96,5.95.15.64,1.03,1.08,1.47,1.69,2.79,3.86,5.16,8.12,8.46,11.47,1.89,1.92,5.24,2.48,8.02,3.4.54.18,1.45-.79,2.2-1.23-1.24-2.06-2.46-4.13-3.75-6.16-.29-.47-.81-.79-1.22-1.19l-.18-.11ZM481.46,262.13c.49-.43.98-.87,1.46-1.3-.89-1.68-1.79-3.36-2.68-5.04-.17,1.3-.27,2.61-.55,3.89-.11.5-.66.88-.95,1.36-.78,1.29-2.48,3.35-2.14,3.76,1.95,2.41,4.15,4.8,6.75,6.42.99.62,3.27-.83,4.96-1.34-1.12-1.63-2.12-3.37-3.4-4.87-.96-1.12-2.29-1.93-3.45-2.88ZM466.83,266.77c1.72-2.33,3.59-4.7,5.14-7.26.14-.24-2.49-2.62-2.65-2.49-2.87,2.24-5.56,4.71-8.28,7.13,1.6.72,3.19,1.44,5.79,2.62ZM394.08,203.12c-1.75,1.97-3.33,3.31-4.22,5.02-.25.48,1.57,2.03,2.44,3.08.97-1.58,2.15-3.08,2.82-4.78.28-.7-.54-1.83-1.04-3.32ZM434.59,228.1c-2.15-1.69-3.65-2.86-5.14-4.04-.6.83-1.85,2.2-1.68,2.42,1.08,1.34,2.4,2.54,3.83,3.49.3.2,1.43-.87,2.99-1.87ZM378.42,212.55c.8,1.44,1.37,2.47,1.94,3.5,1.01-1.45,2.36-2.79,2.9-4.41.27-.81-.92-2.11-1.45-3.18-1.07,1.29-2.14,2.58-3.39,4.09ZM387.58,203.33c-1.97-1.68-3.03-2.95-4.39-3.53-.46-.2-1.67,1.35-2.53,2.09.92,1.01,1.68,2.4,2.83,2.9.74.32,2.05-.67,4.1-1.46ZM494.05,275.35c-2.59-.84-3.99-1.55-5.44-1.65-.8-.06-1.68.91-2.52,1.42,1.5.87,2.92,1.94,4.53,2.5.53.18,1.52-.96,3.44-2.27ZM376.82,216.47c-1.66-1.07-2.72-1.96-3.94-2.38-.28-.1-1.11,1.37-1.69,2.11,1.13.77,2.21,1.66,3.43,2.23.26.12,1.06-.92,2.2-1.96ZM426.63,281.35c-1.25-1.17-2.18-2.04-3.1-2.91-.56.75-1.74,1.77-1.55,2.2.64,1.47,1.76,2.73,2.7,4.08.55-.95,1.11-1.9,1.96-3.37ZM444.01,255.06c.41-.62.81-1.23,1.22-1.85-1.35-.67-2.65-1.64-4.07-1.87-.58-.1-1.42,1.4-2.14,2.16.96.75,1.84,1.68,2.92,2.18.49.23,1.37-.39,2.07-.62ZM427.39,274.04c-.96-1.07-1.72-2-1.77-1.96-1.29.95-2.53,1.99-3.69,3.11-.05.04.96,1.42,1.08,1.37,1.37-.66,2.65-1.48,4.39-2.51ZM468.19,239.37c-1.44-.69-2.29-1.4-3.13-1.39-.53,0-1.48,1.15-1.44,1.71.06.72.83,1.62,1.52,1.94.34.15,1.2-.85,3.05-2.26ZM459.64,236.96c.72-1.24,1.44-1.96,1.29-2.32-.3-.73-1.08-1.26-1.66-1.88-.37.52-1.07,1.08-1.02,1.55.07.71.68,1.37,1.39,2.65ZM403.66,210.16c-.07-.13-.14-.27-.22-.4-.13.18-.27.36-.4.54.13.08.26.23.37.21.1-.02.16-.22.24-.34ZM401.37,221.58c-.11-.33-.22-.65-.32-.96-.31.11-.62.23-.94.34.16.42.33.84.49,1.26.26-.21.51-.43.76-.63ZM417.22,200.33l.13.29.28-.22-.41-.07ZM408.8,240.81c.11-.13.31-.25.32-.38,0-.13-.19-.26-.3-.39-.16.2-.32.41-.49.61.16.06.31.11.47.17Z"/>
        <path class="cls-1" d="M267.15,150.03c-12.16,7.98-24.79,15.34-36.4,24.05-40.81,30.63-66.93,70.96-78.24,120.82-.54,2.37-2.22,4.48-3.37,6.7-.25.49-.84,1.14-.7,1.43,3.6,7.51-.83,14.87-.43,22.36.48,8.89.02,17.83-.08,26.74-.01,1.07-.32,2.13-.49,3.19-.32-.88-.65-1.75-.97-2.63-6.82-18.65-1.8-37.16,1.72-55.31,6.74-34.73,22.05-65.68,44.96-92.76.72-.85,1.66-1.52,2.51-2.28,0,0-.14-.17-.14-.17l.11.21c15.21-18.54,33.75-33.08,54.53-44.79,5.32-3,11.23-4.98,16.86-7.43l.12-.14Z"/>
        <path class="cls-1" d="M518.54,472.31c-13.78,15.57-28.6,29.94-46.01,41.52-21.58,14.36-44.91,24.6-70.18,30.37-1.37.31-3-.48-4.51-.76,1.24-.62,2.42-1.5,3.73-1.82,32.52-7.85,61.73-22.33,87.08-44.16,8.19-7.05,15.43-15.21,23.14-22.81,1.79-1.77,3.38-4.51,6.58-2.16l.15-.17Z"/>
        <path class="cls-1" d="M355.16,167.25c40.82-.18,77.14,12.67,108.98,38.19,1.19.95,2.37,1.92,3.44,2.99.48.48.67,1.24,1,1.87-.83-.03-1.9.26-2.45-.15-4.12-3.06-8.02-6.41-12.2-9.38-30.87-22.02-65.38-32.42-103.2-32.07-3.98.04-7.94.73-11.92.98-.75.05-1.55-.58-2.33-.9.71-.51,1.41-1.45,2.13-1.46,5.51-.12,11.03-.07,16.55-.07Z"/>
        <path class="cls-1" d="M501.76,430.39c.41-1.86.4-3.95,1.29-5.55,8.12-14.71,14.02-30.21,18.18-46.5,3.76-14.75,4.26-29.67,4.04-44.7-.07-4.56-.48-9.12-.69-13.68-.01-.31.27-.91.4-.9.53.03,1.38.09,1.51.4.59,1.35,1.3,2.77,1.4,4.21,2.44,36.14-3.78,70.41-22.31,101.95-1.01,1.71-2.57,3.09-3.88,4.63l.08.14Z"/>
        <path class="cls-1" d="M548.45,417.3c.02-1.59-.31-3.28.13-4.74,1.99-6.72,3.51-13.7,6.47-19.98,4.25-9.03,3.41-18.77,5.01-28.12,1.65-9.65,1.18-19.67,1.75-29.52.08-1.43.81-2.82,1.24-4.24.85,1.48,2.43,2.95,2.45,4.44.42,27.2-3.89,53.62-13.79,79.03-.5,1.27-2.13,2.1-3.24,3.13h0Z"/>
        <path class="cls-1" d="M419.74,402.73c1.66-6.49,1.85-12.64,4.76-16.94,2.4-3.53,8.03-4.88,12.26-7.14.13-.07.88.52.85.7-.13.68-.35,1.78-.76,1.89-3.77.99-4.89,2.88-2.85,6.5.39.69-.51,2.09-.8,3.17-1.38,5.04-8.56,7.1-7.16,13.73.05.26-3.18,1.97-4.15,1.49-1.25-.61-1.76-2.74-2.14-3.41Z"/>
        <path class="cls-1" d="M475.11,214.55c14.19,14.88,27.06,30.72,35.78,49.55.48,1.03,1.11,2,1.41,3.07.15.52-.31,1.22-.5,1.83-.5-.17-1.21-.19-1.46-.54-.77-1.07-1.45-2.22-2.02-3.41-7.87-16.15-18.14-30.61-30.35-43.78-1.53-1.65-1.8-4.48-2.68-6.75-.03,0-.18.02-.18.02Z"/>
        <path class="cls-1" d="M526.33,312.59c-.27.49-.69,1.24-1.1,1.99-.64-.77-1.61-1.44-1.86-2.32-3.38-12.01-6.68-24.04-9.93-36.08-.21-.76.14-1.67.23-2.51.91.79,2.33,1.42,2.64,2.4,2.84,8.82,5.57,17.69,8.13,26.59.89,3.08,1.22,6.31,1.89,9.92Z"/>
        <path class="cls-1" d="M354.99,201.89c-1.16,1.5-2.34,3.56-4.08,4.88-.46.35-2.61-1.73-4.09-2.49-1.14-.58-2.44-.92-3.7-1.21-1.16-.27-2.37-.34-3.55-.5.73-1.2,1.17-2.83,2.23-3.5,2.36-1.5,4.92-2.83,7.58-3.67,5.53-1.75,4.03,3.25,5.62,6.49ZM349.23,202.89c-.3.16-.67.25-.86.49-.1.13.13.51.22.78.31-.12.74-.16.88-.38.11-.17-.14-.57-.24-.89Z"/>
        <path class="cls-1" d="M372.3,192.67c.25.67.49,1.34.74,2.02l-.11-.1c-3.48.99-8.97-1.27-8.95,5.51,0,.14-1.66.59-1.81.38-.46-.66-1.03-1.97-.73-2.32,3.47-4.08,2.43-4.7-2.24-3.28-.76.23-1.95-.99-2.94-1.54.58-.78,1.04-2.09,1.75-2.24,2.51-.54,5.1-.67,7.67-.95.01.01.12.38.12.38v-.47c2.16.38,4.36.65,6.5,1.17,1.47.35,2.85,1.05,4.27,1.59-1.46-.07-2.91-.14-4.38-.2-.01.01-.26.24-.26.24l.37-.18ZM358.8,192.26l-.35-.2c-.01.24-.02.48-.03.73.12-.06.28-.08.35-.18.06-.08.01-.23.03-.35Z"/>
        <path class="cls-1" d="M327.11,213.61c-.55.6-1.12,1.76-1.71,1.76-1.63.02-3.26-.44-4.89-.71.44-.8,1.17-1.57,1.27-2.41.18-1.5-.18-3.07,0-4.57.1-.8.86-1.52,1.32-2.28.35.61.74,1.21,1.05,1.84.96,2.01,1.89,4.04,2.97,6.37Z"/>
        <path class="cls-1" d="M512.12,334.72c-.19.62-.37,1.2-.55,1.78-.19-1.3-.4-2.6-.54-3.91-.04-.37.15-.76.23-1.13.28,1.07.57,2.15.86,3.27Z"/>
      </g>
    </g>
    <path class="cls-1" d="M400.72,490.06c1.93-.83,3.87-1.65,5.8-2.48.05.34.18.96.14.97-1.92.48-3.86.91-5.8,1.35l-.15.16Z"/>
    <path class="cls-1" d="M413.14,484.64c.62.32,1.02.53,1.43.73-.77.42-1.52.89-2.34,1.21-.13.05-.53-.59-.81-.91.57-.35,1.15-.69,1.71-1.04Z"/>
    <path class="cls-1" d="M255.39,219.99c-.36.42-.65.92-1.08,1.18-.15.09-.65-.38-.99-.6.39-.37.74-.8,1.19-1.08.12-.08.52.28.88.5Z"/>
    <path class="cls-1" d="M393.2,492.58c.58-.34,1.15-.69,1.73-1.03l.17.44c-.68.15-1.36.3-2.05.45,0,0,.14.15.14.15Z"/>
  </g>
  <g>
    <path class="cls-2" d="M270.53,67.25c-7.04,1.82-14.13,3.48-21.1,5.52-6.7,1.96-13.92,2.46-19.86,6.63,1.12,2.79,2.17,5.4,3.22,8.01-.41.22-.82.45-1.23.67-1.33-1.94-2.66-3.88-4.09-5.97-.2.77-.36,1.92-.79,2.96-.32.78-.9,1.89-1.53,2.01-2.43.47-4.93.6-7.86.9-.49-1.56-1.15-3.66-1.93-6.12-36.8,9.92-73.39,19.78-110.12,29.68,1.1,2.61,1.76,4.75-1.57,6.43.24-2.26.43-4.07.65-6.12-1.46.36-2.67.59-3.84.96-6.46,2.02-12.81,5.22-19.38,5.77-6.04.5-2.93,3.22-2.82,5.56.01.27-.3.56-1.02,1.84-.92-2.47-1.58-4.24-2.32-6.25-2.32.64-4.45,1.22-6.54,1.8q1.04,4.98-.41,5.69c-.3-1.71-.61-3.43-.95-5.35-15.83,4.28-31.18,8.42-46.54,12.57-.99.27-1.99.51-2.94.87-5.02,1.85-9.39,4.63-12.48,9.09-.46.66-.48,1.7-.51,2.57-.07,1.83-.02,3.67-.02,5.5-.34,0-.68.02-1.02.03-.49-.66-.97-1.31-1.65-2.23-2.12,5.64-2.41,10.96-.95,16.41,3.63,13.51,7.17,27.05,10.85,40.55,1.66,6.1,3.56,12.14,5.35,18.21l.3,1.24c.02.57-.07,1.16.07,1.7,2.25,8.47,4.46,16.95,6.83,25.39,4.13,14.68,20.04,21.12,32.84,17.34,15.94-4.7,32.08-8.69,48.14-12.99,15.94-4.26,31.87-8.52,47.81-12.79-.21-.24-.41-.49-.62-.73,1.06-1.3,1.97-2.79,3.26-3.79.51-.39,1.88.35,3.6.74-1.63,1.26-2.38,1.84-3.13,2.42,3.24-.36,6.3-1.14,9.35-1.95,2.64-.7,5.31-1.33,7.9-2.19,2.59-.86,6.19-1.27,7.39-3.13,2.47-3.84,4.73,1.74,6.67-.53.12-.14.43-.11.65-.17,5.39-1.44,10.79-2.85,16.16-4.35,3.37-.94,7.39-.81,8.25-4.05,2.3.17,3.95.61,5.46.33,3.04-.56,6-1.52,8.99-2.31,27.28-7.28,54.56-14.54,81.82-21.89,1.35-.36,2.49-1.51,3.19-1.95,1.97-.09,3.59.12,5.06-.27,31.44-8.36,62.86-16.78,94.29-25.19,14.19-3.8,28.37-7.6,42.55-11.42,9.21-2.48,18.41-4.99,27.49-7.45.2-1.7.36-3.06.53-4.42l.63-.06c.59,1.17,1.17,2.33,1.86,3.7,8.09-2.19,16.15-4.38,24.13-6.54v-6.67c.86.56,1.26,1.21,1.31,1.88.21,3.09,1.05,4.33,4.69,3.28,13.67-3.96,27.45-7.5,41.18-11.24,4.45-1.21,8.47-3.2,11.87-7.04-1.69-1.87-3.3-3.65-4.94-5.47h5.99c-.16,1.5-.32,2.95-.56,5.11,1.3-1.66,2.4-2.77,3.16-4.07,3.69-6.27,4.82-12.99,2.96-20.07-3.84-14.53-7.77-29.04-11.67-43.55-.24-.9-.57-1.78-.86-2.67-.32.08-.63.15-.95.23.38,1.81.75,3.62,1.1,5.28-3.6-2.81-7.02-5.47-10.91-8.51-.59,2.31-1.51,3.82-1.09,4.65,1.16,2.28,2.72,4.41,4.41,6.35,2.61,2.98,2.5,3.7-1.52,5,1.19,4.47,2.38,8.96,3.58,13.48,3.67-1.71,4.94-.88,4.7,2.96-.09,1.47.02,3.22-.72,4.34-2.84,4.25.82,6.28,2.78,8.86.39.51,1.45.51,2.2.75-.4.47-.8.94-1.2,1.42-.96-.42-1.91-.85-3.35-1.48,1.68,5.6,3.2,10.74.29,15.98-2.98,5.38-8.33,6.63-13.77,8.06,1.04,3.3,1.98,6.31,2.93,9.32-.29.12-.58.23-.88.35-1.34-3.02-2.68-6.04-4.07-9.16-19.61,5.32-39.19,10.62-59.17,16.04,2.94,3.24,1.25,5.48-.78,7.86-1.38-.81-2.69-1.48-3.9-2.3-3.4-2.34-6.78-2.74-10.9-1.46-9.34,2.9-18.83,5.32-28.32,7.71-2.78.7-5.1,1.36-5.29,4.83-.46-.97-.92-1.94-1.4-2.95-3.38.89-6.64,1.52-9.74,2.62-5.96,2.11-13,1.6-16.75,6.31-2.07-.26-3.42-.8-4.56-.51-7.18,1.79-14.31,3.74-21.45,5.69-1,.27-1.93.78-3.07,1.25,1.69,1.32,3,2.35,4.31,3.38-.22.37-.44.75-.65,1.12-.77-.46-1.8-.74-2.25-1.41-1.61-2.4-3.51-3.15-6.37-2.28-5.11,1.55-10.32,2.81-15.48,4.21-7.22,1.96-14.43,3.94-21.03,5.74-.3,2.23-.53,3.93-.76,5.62-.24-.01-.49-.03-.73-.04-.72-1.5-1.45-3-2.24-4.63-8.72,2.35-17.25,4.64-25.51,6.87-.23,2.87-.43,5.36-.64,7.86-.41,0-.81,0-1.22-.01-.59-2.23-1.18-4.46-1.8-6.8-4.53,1.19-8.9,2.33-13.27,3.5-11.76,3.13-23.54,6.23-35.28,9.45-2.8.77-5.05,2.38-5.61,5.6-.16.89-.68,1.71-1.03,2.56l-.96-.21c.13-1.92.27-3.85.43-6.07-21.47,5.74-42.84,11.44-64.36,17.19.49,3.63.09,6.74-3.73,8.41-.55-2.34-1.06-4.51-1.65-6.99-14.97,3.99-29.63,7.9-44.22,11.79.18,3.05.34,5.61.49,8.17-.58.05-1.15.09-1.73.14-.2-2.48-.4-4.96-.63-7.83-5.69,1.93-11.81,2.29-17.17,5.11-1.73.51-3.37,1.17-5.01,1.82-.79.32-1.57.78-2.39.91-3.32.52-6.7.76-9.98,1.46-1.28.27-2.35,1.49-3.52,2.27-1.65-.15-3.56-.2-4.81.68-3.52,2.48-6.76,5.35-10.16,8.1q-2.95-5.53-8.73-3.97c-6.04,1.62-12.09,3.24-18.14,4.86-9.16,2.46-16.04-1.4-18.52-10.57-7.56-28.04-15.06-56.09-22.55-84.14-2.35-8.81,1.6-15.54,10.48-17.96,11.64-3.18,23.3-6.3,34.95-9.43,27.38-7.35,54.75-14.71,82.15-21.98,2.3-.61,3.43-1.57,3.64-4.04.16-1.82,1.09-3.57,1.67-5.34.36.06.71.13,1.07.19-.17,2.39-.34,4.77-.53,7.47,7.29-1.93,14.49-3.87,21.71-5.74,2.23-.58,4.47-.93,4.16-4.14-.07-.7.68-1.48,1.06-2.22.17.06.34.12.52.17-.06,1.41-.13,2.83-.21,4.68,17.55-4.72,34.74-9.35,51.92-13.97-.4-1.58-.69-2.73-.99-3.89.17-.08.34-.15.51-.23.74,1.17,1.47,2.33,2.28,3.61,63.73-17.1,127.37-34.17,191-51.24.05-.35.11-.69.16-1.04-4.02-2.06-8.13-3.94-12.01-6.23-2.66-1.57-5.05-1.06-7.73-.32-10.16,2.8-20.37,5.45-30.55,8.17-21.99,5.87-43.99,11.71-65.96,17.62-10.65,2.86-21.26,5.86-31.88,8.8l.11-.09ZM494.98,15.31c1.53.53,2.57.56,2.87,1.04,1.59,2.55,3.65,1.96,5.94,1.31,6.03-1.69,12.08-3.3,18.15-4.82,8.19-2.06,15.11,1.98,17.36,10.14,2.85,10.32,5.61,20.67,8.44,30.99.1.37.48.66,1.09,1.46,2.37-3.94,4.72-7.68,10.61-5.02-2.22-8.28-4.22-15.73-6.34-23.62-.84,1.32-1.33,2.09-1.82,2.87-.29-.1-.58-.2-.86-.3.37-1.68.76-3.37,1.11-5.06.15-.73.41-1.51.29-2.22-2.76-15.69-17.32-25.2-32.83-21.16-26.76,6.96-53.47,14.14-80.2,21.24-.67.18-1.29.55-2.42,1.04,2.15,1.22,3.82,2.16,5.49,3.1q2.72,1.52,1.73,3.88c-1.47-1.05-3.36-3.34-4.49-3.02-4,1.15-3.8-1.38-4.18-3.97-4.73,1.26-9.52,2.27-14.13,3.82-4.34,1.46-9.03,1.71-13.65,3.85,4.12,2.22,7.93,4.03,11.47,6.26,2.85,1.79,5.51,2.16,8.64.9,2.13-.86,4.46-1.2,6.69-1.79,11.98-3.19,23.96-6.38,35.95-9.58,8.89-2.37,17.78-4.75,26.91-7.19-.57-1.3-1.01-2.29-1.83-4.16Z"/>
    <path class="cls-2" d="M17.1,225.45c-1.79-6.07-3.68-12.11-5.35-18.21-3.67-13.5-7.21-27.04-10.85-40.55-1.47-5.46-1.17-10.78.95-16.41.68.92,1.17,1.58,1.65,2.23.34,0,.68-.02,1.02-.03,0-1.83-.05-3.67.02-5.5.04-.87.05-1.91.51-2.57,3.1-4.46,7.47-7.24,12.48-9.09.96-.35,1.96-.6,2.94-.87,15.36-4.15,30.71-8.3,46.54-12.57.34,1.92.65,3.64.95,5.35q1.45-.71.41-5.69c2.09-.58,4.22-1.16,6.54-1.8.74,2,1.4,3.78,2.32,6.25.73-1.28,1.04-1.57,1.02-1.84-.11-2.33-3.21-5.05,2.82-5.56,6.57-.55,12.92-3.75,19.38-5.77,1.17-.36,2.37-.6,3.84-.96-.22,2.05-.41,3.85-.65,6.12,3.32-1.69,2.66-3.82,1.57-6.43,36.72-9.9,73.32-19.76,110.12-29.68.77,2.46,1.44,4.57,1.93,6.12,2.93-.3,5.43-.43,7.86-.9.63-.12,1.2-1.24,1.53-2.01.43-1.04.6-2.19.79-2.96,1.43,2.09,2.76,4.03,4.09,5.97.41-.22.82-.45,1.23-.67-1.05-2.61-2.1-5.22-3.22-8.01,5.93-4.18,13.16-4.67,19.86-6.63,6.97-2.04,14.06-3.7,21.1-5.52-1.81,1.13-3.61,2.26-5.42,3.39.18.35.37.7.55,1.06,2.26-1.15,4.53-2.3,7.66-3.89-1.55-.25-2.22-.36-2.89-.47,10.63-2.94,21.24-5.93,31.88-8.8,21.98-5.91,43.97-11.76,65.96-17.62,10.19-2.72,20.39-5.37,30.55-8.17,2.68-.74,5.06-1.24,7.73.32,3.88,2.29,8,4.17,12.01,6.23-.05.35-.11.69-.16,1.04-63.63,17.07-127.26,34.14-191,51.24-.8-1.27-1.54-2.44-2.28-3.61-.17.08-.34.15-.51.23.29,1.16.59,2.31.99,3.89-17.18,4.62-34.36,9.25-51.92,13.97.08-1.85.15-3.26.21-4.68-.17-.06-.34-.12-.52-.17-.37.74-1.13,1.52-1.06,2.22.32,3.21-1.93,3.56-4.16,4.14-7.22,1.88-14.42,3.81-21.71,5.74.19-2.7.36-5.09.53-7.47-.36-.06-.71-.13-1.07-.19-.59,1.78-1.51,3.53-1.67,5.34-.22,2.47-1.35,3.43-3.64,4.04-27.4,7.27-54.78,14.63-82.15,21.98-11.65,3.13-23.31,6.25-34.95,9.43-8.88,2.43-12.83,9.15-10.48,17.96,7.48,28.06,14.99,56.11,22.55,84.14,2.47,9.17,9.36,13.03,18.52,10.57,6.04-1.62,12.09-3.23,18.14-4.86q5.78-1.55,8.73,3.97c3.4-2.75,6.64-5.62,10.16-8.1,1.25-.88,3.16-.83,4.81-.68,1.17-.79,2.24-2,3.52-2.27,3.28-.7,6.65-.94,9.98-1.46.82-.13,1.59-.59,2.39-.91,1.64-.65,3.28-1.31,5.01-1.82,5.36-2.81,11.48-3.18,17.17-5.11.23,2.87.43,5.35.63,7.83.58-.05,1.15-.09,1.73-.14-.15-2.56-.31-5.12-.49-8.17,14.59-3.89,29.25-7.8,44.22-11.79.59,2.48,1.1,4.65,1.65,6.99,3.83-1.68,4.22-4.79,3.73-8.41,21.52-5.75,42.89-11.46,64.36-17.19-.16,2.23-.29,4.15-.43,6.07l.96.21c.35-.85.87-1.68,1.03-2.56.56-3.22,2.82-4.83,5.61-5.6,11.74-3.23,23.51-6.32,35.28-9.45,4.37-1.16,8.74-2.3,13.27-3.5.62,2.33,1.21,4.57,1.8,6.8.41,0,.81,0,1.22.01.2-2.5.4-4.99.64-7.86,8.26-2.22,16.79-4.52,25.51-6.87.79,1.63,1.51,3.13,2.24,4.63.24.01.49.03.73.04.23-1.69.46-3.39.76-5.62,6.6-1.8,13.81-3.78,21.03-5.74,5.16-1.4,10.37-2.66,15.48-4.21,2.86-.87,4.77-.11,6.37,2.28.45.67,1.48.95,2.25,1.41.22-.37.44-.75.65-1.12-1.31-1.03-2.62-2.06-4.31-3.38,1.13-.47,2.07-.98,3.07-1.25,7.14-1.94,14.27-3.9,21.45-5.69,1.14-.28,2.49.25,4.56.51,3.75-4.72,10.79-4.2,16.75-6.31,3.1-1.1,6.36-1.73,9.74-2.62.48,1.02.94,1.98,1.4,2.95.19-3.47,2.51-4.13,5.29-4.83,9.49-2.39,18.98-4.81,28.32-7.71,4.12-1.28,7.5-.88,10.9,1.46,1.2.83,2.52,1.49,3.9,2.3,2.03-2.38,3.71-4.62.78-7.86,19.98-5.41,39.55-10.72,59.17-16.04,1.39,3.13,2.73,6.15,4.07,9.16.29-.12.58-.23.88-.35-.94-3.01-1.89-6.02-2.93-9.32,5.44-1.43,10.79-2.68,13.77-8.06,2.91-5.24,1.39-10.38-.29-15.98,1.43.63,2.39,1.06,3.35,1.48.4-.47.8-.94,1.2-1.42-.75-.24-1.81-.24-2.2-.75-1.96-2.57-5.62-4.61-2.78-8.86.74-1.11.63-2.87.72-4.34.24-3.84-1.04-4.68-4.7-2.96-1.2-4.52-2.39-9-3.58-13.48,4.02-1.3,4.12-2.02,1.52-5-1.69-1.94-3.25-4.07-4.41-6.35-.42-.83.5-2.34,1.09-4.65,3.89,3.04,7.31,5.7,10.91,8.51-.35-1.66-.72-3.47-1.1-5.28.32-.08.63-.15.95-.23.29.89.62,1.77.86,2.67,3.9,14.51,7.83,29.02,11.67,43.55,1.87,7.07.73,13.79-2.96,20.07-.76,1.3-1.85,2.41-3.16,4.07.23-2.16.39-3.61.56-5.11h-5.99c1.64,1.82,3.25,3.59,4.94,5.47-3.4,3.84-7.42,5.83-11.87,7.04-13.73,3.74-27.52,7.29-41.18,11.24-3.63,1.05-4.48-.19-4.69-3.28-.05-.67-.45-1.33-1.31-1.88v6.67c-7.98,2.16-16.04,4.35-24.13,6.54-.69-1.37-1.28-2.54-1.86-3.7l-.63.06c-.16,1.36-.32,2.73-.53,4.42-9.08,2.46-18.28,4.97-27.49,7.45-14.18,3.82-28.37,7.62-42.55,11.42-31.42,8.41-62.85,16.84-94.29,25.19-1.47.39-3.09.18-5.06.27-.7.44-1.84,1.58-3.19,1.95-27.26,7.35-54.54,14.61-81.82,21.89-2.99.8-5.95,1.75-8.99,2.31-1.51.28-3.16-.16-5.46-.33-.87,3.24-4.88,3.1-8.25,4.05-5.37,1.51-10.77,2.91-16.16,4.35-.22.06-.53.03-.65.17-1.94,2.27-4.2-3.31-6.67.53-1.2,1.87-4.81,2.27-7.39,3.13-2.59.86-5.26,1.49-7.9,2.19-3.05.81-6.1,1.59-9.35,1.95.75-.58,1.5-1.16,3.13-2.42-1.72-.39-3.09-1.13-3.6-.74-1.29.99-2.2,2.49-3.26,3.79.21.24.41.49.62.73-15.94,4.26-31.87,8.52-47.81,12.79-16.06,4.3-32.2,8.29-48.14,12.99-12.8,3.77-28.72-2.66-32.84-17.34-2.37-8.44-4.58-16.92-6.83-25.39-.14-.53-.05-1.13-.07-1.7.81,2.2,1.55,4.43,2.46,6.59.45,1.05,1.03,2.48,1.9,2.8.81.3,2.08-.64,2.46-.78-2.7-5.51-7.22-9.71-5.86-16.5-.42.06-.84.11-1.26.17,0,2.16,0,4.32,0,6.49ZM344.48,189.89c-.53-.58-1.06-1.16-1.59-1.73,2.33-1.01,4.65-2.01,7.33-3.17-3.91-2.06-6.32-1.55-7.65.81-1.3,2.31.19,3.25,1.91,4.09ZM281.55,68c-1.91-2.66-3.93-2.59-6.07-.24-1.67,1.84-3.33,3.7-5,5.55.25.27.51.54.76.81,1.43-1.33,2.69-2.94,4.33-3.91,1.75-1.03,3.86-1.46,5.97-2.21ZM564.1,111.28c.93,2.26,1.17,3.37,1.79,4.2.46.61,1.42.86,2.16,1.26-.13-1.52.02-3.16-.53-4.5-.24-.58-1.93-.58-3.42-.96ZM169.04,231.05c-1.22.96-2.49,1.56-2.44,2,.27,2.2.88,4.36,1.36,6.53.23-.07.46-.15.69-.22.11-2.39.22-4.79.38-8.3Z"/>
    <path class="cls-2" d="M344.48,189.89c-1.72-.83-3.21-1.78-1.91-4.09,1.33-2.36,3.75-2.87,7.65-.81-2.68,1.16-5,2.16-7.33,3.17.53.58,1.06,1.16,1.59,1.73Z"/>
    <path class="cls-2" d="M281.55,68c-2.11.75-4.22,1.18-5.97,2.21-1.64.97-2.9,2.58-4.33,3.91-.25-.27-.51-.54-.76-.81,1.66-1.85,3.33-3.7,5-5.55,2.13-2.35,4.16-2.42,6.07.24Z"/>
    <path class="cls-2" d="M564.1,111.28c1.49.38,3.18.37,3.42.96.55,1.35.4,2.98.53,4.5-.74-.41-1.69-.65-2.16-1.26-.62-.82-.86-1.94-1.79-4.2Z"/>
    <path class="cls-2" d="M169.04,231.05c-.16,3.52-.27,5.91-.38,8.3-.23.07-.46.15-.69.22-.49-2.17-1.1-4.33-1.36-6.53-.05-.44,1.22-1.03,2.44-2Z"/>
    <path class="cls-2" d="M270.42,67.34c.67.11,1.34.22,2.89.47-3.13,1.59-5.39,2.74-7.66,3.89-.18-.35-.37-.7-.55-1.06,1.81-1.13,3.61-2.26,5.42-3.39,0,0-.11.09-.11.09Z"/>
    <path class="cls-2" d="M72.17,162.03l5.61-2.01.39.58c-.3,1.11-.35,2.04-.15,2.78l.23.85.64-.18c.57-.16.75-1.42.55-3.8l.15-.27,1.7-.47c3.82-1.05,6.31.54,7.48,4.78.55,1.98.54,3.05-.03,3.2-1.05-.21-2.35-1.06-3.91-2.57l-2.12.59c-1.13.31-1.54,1.03-1.23,2.17.27.99,1.47,1.19,3.59.61l.12.42-.31.54-2.08-.11-.04.69c.19.67,1.7.94,4.56.8l.6.52c-2.03,5.05-9.07,20.62-21.12,46.7l11.21-2.41,22-6.3.64-.18c2.42-.06,4,1.26,4.74,3.94.4,3.24-.73,5.22-3.38,5.96l-.42.12-7.72.99-.21.06-21.29,7.25-4.88,1.35c-7.64,2.11-12.7,1.68-15.19-1.28l-.56-1.21-.23-.85c-.84-3.04,1.1-8.14,5.82-15.3l14.38-32.28.92-1.62,2.63.42.21-.06c.56-.46.83-.84.83-1.14-.35.1-.64-.13-.87-.67l-.27-.15-.42.12-1,.5-.27-.15-.06-.21,1.21-3.07-.18-.64-28.85,7.96c-1.59.44-2.92-.79-3.99-3.69-.54-3.05.04-4.81,1.74-5.27l9.64-3.12,19.21-4.85ZM68.87,169.1l.64-.18c.28-.08.37-.33.25-.75-.91-.97-1.71-1.36-2.38-1.17-.39.22-.6.58-.61,1.08l2.11,1.02ZM80.89,164.64l.21-.06,2.49-.91.69.04-.2-1.54c-.18-.64-.99-1.1-2.44-1.38-.73,1.76-.98,3.05-.76,3.86Z"/>
    <path class="cls-2" d="M139.51,145.26l.06.21-.31.54-1.24-.34-.42.12.12.42c.98,2.17,2.14,3.06,3.48,2.69l.06.21c.14,2.7-1.77,4.6-5.73,5.69l-8.54,2.13-.12-.42c.57-.16.77-.52.61-1.08l-.21.06c-1.14,1.23-2.58,2.08-4.32,2.56l-.42.12-9.93,2.06c-2.4.66-3.47,1.49-3.2,2.48l1.83,4.97c.35,1.27-.04,2.07-1.17,2.38,1.26,1.25,2.07,2.55,2.44,3.89.29,1.06.11,3.16-.54,6.31l.21-.06c.92-.25,1.46-1.62,1.61-4.1l.15-.27,1.27-.35c1.24-.34,3.41-.48,6.5-.43l1.79-.95.06.21-.04.69,2.8,1.05.12.42-.15.27.06.21.27.15.42-.12c.25-.07.44-.73.59-1.99l.42-.12-.06-.21c-1.28-.1-2.4-.02-3.36.24l-.12-.42c3.51-2.19,6.67-3.67,9.5-4.45,4.35-1.2,7.66-1.05,9.94.45.77.59,1.27,1.29,1.49,2.1l.06.21c.78,2.83-.67,4.75-4.34,5.77l-2.33.64-.54-.31-.06-.21c-.2-.74.16-1.91,1.09-3.5l-.42.12c-1.74.86-2.46,1.82-2.17,2.88l.56,1.21.06.21-4.57.81-12.4,3.88-4.03,1.11-.31.54.53,1.91-.61,1.08-1.84-.86-.64.18c-.54.8-.72,1.53-.53,2.2l.54.31.06.21c-1.33.98-3.12,1.93-5.38,2.85l-3.09.4-.06-.21-.22-2.45-1.51-3.01-.35-1.27.15-.27-.06-.21,1.54-.2.42-.12c.6-.17.94-1.7,1.01-4.62l1.21-.56,2.57.2c.36-.9.47-1.61.32-2.14l-.18-.64c-.38-1.38-1.5-2.13-3.37-2.27l-.21.06.06.21c.54-.11,1.04.05,1.51.5.08.28-.31.54-1.16.78l.06.21,1.35.77.06.21c-.95.26-2.29,2.31-4.01,6.13l-.21.06-1.66-.23-.49-2.6-1.46-5.3-3.49-11.82c-.05-.44.5-1.2,1.65-2.28l-.18-.64-2.32-.96.31-.54.85-.23,2.57.2.73-.66c-.1-.35-.64-.66-1.62-.92l-.15.27-1.91.53c-.35.1-.64-.13-.87-.67.42-3.16,2.43-5.24,6.04-6.23l2.76-.76c2.05-.57,4.62-.9,7.72-.99,1.11-1.07,2.43-1.81,3.95-2.23.64-.18,1.94-.15,3.9.07.85-.23,1.19-.63,1.04-1.2l.42-.12c.77,1,1.64,1.37,2.59,1.11l.64-.18.31-.54-1.24-.34-.12-.42c2.57-1.17,4.84-2.02,6.82-2.57,4.68-1.1,7.58-1.07,8.7.11ZM116.74,190.13l.54.31,1.17,4.24c.85,3.08.93,5.03.25,5.87,1.03,1.54,2.33,2.1,3.88,1.67,4.03-1.11,6.96-1.54,8.78-1.28.02-.61.58-1.07,1.67-1.38l.85-.23,3.51-.51-.06-.21.4-1.02,6.36-1.76c5.69-1.57,9.56-1.35,11.6.68l.5,1c1.09,3.96-1.05,6.68-6.42,8.16l-2.97.82c-3.11.86-7.26,1.55-12.44,2.07-2.63,1.49-5.43,2.64-8.4,3.46l-3.82,1.05c-6.93,1.91-10.73,1.67-11.39-.74-1.33-2.6-2.21-4.72-2.66-6.34l-.76-2.76c-.52-1.87-.69-3.88-.52-6.02l-1.35-.77-.29-1.06.15-.27-.06-.21c.71.11,1.67,0,2.87-.34l2.12-.59c2.93-.81,4.74-1.99,5.41-3.55l1.06-.29ZM97.94,156.74l5.36-1.25,1-.5-.06-.21-4.05.21c-1.27.35-2.09.96-2.46,1.82l.21-.06ZM111.67,203.17c1.56-.43,2.28-1.92,2.19-4.48-2.26.62-3.06,2.14-2.4,4.54l.21-.06ZM101.11,164.08c.1.35.83.53,2.2.53l-.74-1.85-.15.27-.21.06-1.33.14.23.85ZM109.21,183.53l.06.21.67,3.24,1.66.23-.29-1.06.15-.27-.06-.21,2.24-.16-.06-.21-.72-.94.15-.27.21-.06,2.39-.43c.56-.46.83-.84.83-1.14l-.12-.42-1.7.47c-.63-.09-1.05-.51-1.26-1.25,1.09-.45,1.6-.82,1.52-1.1l-1.24-.34c-1.87,2.19-3.21,3.4-4.02,3.62l-.42.12ZM112.82,182.54l.23.85c-.02.46-.39.79-1.1.99l-1.7.47-.12-.42c.44-1.03,1.24-1.71,2.41-2.03l.27.15ZM120.19,206.76l.6.52.35,1.27-.56,1.29.27.15c.42-.12.98-1.41,1.67-3.88l-1.81.04-.58.39.06.21ZM114.88,155.26c.57-.16,1.08.31,1.53,1.4.99-.27,1.72-.93,2.19-1.98l-.06-.21-.21.06.12.42-.42.12c-.2-.71-.5-1-.93-.88l-1.27.35-1,.5.06.21ZM120.27,150.8l.06.21,2.93-.12.31-.54-.06-.21-2.99-.09-.25.75ZM127.71,177.74c.95-.26,1.6-.14,1.93.38l.1,2.03.06.21.21-.06c1.33-.71,1.86-1.54,1.59-2.49l-.21.06-3.17-.72-.58.39.06.21ZM146.84,204.88l.64-.18-.06-.21-.6-.52-.41-1.48-.85.23-1,.5c1.13,1.06,1.89,1.61,2.28,1.65Z"/>
    <path class="cls-2" d="M174.11,134.34l3.12-1.09.27.15.08,1.12.18.64c.86,3.11,2.63,4.3,5.32,3.55l.27.15.06.21-.52.6-.64.18-3.51.51c-.83.3-1.19.63-1.1.99,1.64-.11,2.5-.04,2.57.2l.35,1.27,1.27-.35c-.09-.74.03-1.15.34-1.24l.42-.12c.46-.13,2.29.43,5.49,1.68l.21-.06c1.53-1.07,2.09-2.36,1.67-3.88l-.06-.21c-1.36.99-2.7,1.66-4.01,2.02l-.21.06c-1.1.3-1.9.14-2.41-.48,2.55-3.59,4.08-5.47,4.61-5.61l4.87,2.76c1.17.78,1.99,1.85,2.48,3.2,1.2-.33,3.18,1.86,5.93,6.58,1.67,3.3,2.81,6.04,3.4,8.19l-4.2,2.99c.08.28.33.37.75.25l1.52-1.1.42-.12.54.31.35,1.27c-.23.82-.63,1.31-1.19,1.47l.12.42.69.04,1.95-1.22.12.42-.56,1.29c.59-.09.93.05,1.02.4l.29,1.06c2.64,9.55.51,17.82-6.39,24.82-2.67,2.87-9.89,5.93-21.67,9.18-1.76.94-3.89,1.76-6.4,2.45l-2.33.64c-4.53,1.25-7.14.6-7.84-1.94-.28.08-.8-.69-1.55-2.31l.15-.27.21-.06c.37.51.66.73.87.67l.42-.12c.28-.08.37-.33.25-.75-.42-1.25-.74-1.85-.95-1.79-.53.3-.73.66-.61,1.08l-.42.12-.83-1.37-.12-.42c-.23-.85-.3-2.73-.19-5.65-.12-.42-.46-.56-1.02-.4l-.06-.21.4-1.02-.64.18-.12-.42c-.18-1.47.26-2.36,1.32-2.65l.21-.06c.47,1.7,1.55,2.31,3.25,1.84l.21-.06-.06-.21c-1.34-1-2.09-1.78-2.25-2.35-.12-.42.32-.77,1.31-1.05l-.54-.31-3.68,2.39-.21.06-.54-.31-.18-.64c-.08-.28.43-.65,1.52-1.1l-.06-.21-1.87-.17-1.37-5.79-7.3-25.61-.7-2.55,1.17-2.38,2.03-.1-.18-.64c-.09-.32-.66-.46-1.72-.44l-.06-.21c2.9-2.17,6.4-3.82,10.5-4.95l15.72-3.43ZM164.56,198.16l.21-.06,2.6-.49.25-.75-.21.06-1.21.56c-.78-.05-1.23-.31-1.35-.77l-.21.06-.07,1.39ZM159.93,172.27l.06.21,2.49-.91,2.03-.1-.06-.21c.13-.64.4-1.02.83-1.14l-.54-.31c-1.73.48-3.42,1.25-5.07,2.31l.27.15ZM166.33,196.3c1.94-.54,3.71-.49,5.29.14l.21-.06c.28-.08.33-.47.13-1.18l.15-.27.21-.06c.61.14,1.48.81,2.61,2.02l1.06-.29-.5-1,1.29-1.95c-2.84.33-5.94.95-9.3,1.88l-1.27.35.12.42ZM162.98,179.19l1.66.23.12.42-1.06.29c-.83.3-1.19.63-1.1.99l.12.42c3.25-.9,4.7-1.98,4.35-3.26l-.06-.21-1.54.2-2.55.7.06.21ZM166.08,190.43c.35,1.27,1.09,1.75,2.22,1.44l.42-.12c-.23-.85-1.07-1.38-2.49-1.59l-.21.06.06.21ZM160.24,147.76l-1.21.56c1.49,1.53,2.63,3.73,3.42,6.59l.47,1.7c.82,2.97.89,5.16.21,6.56,1,.33,1.62.92,1.86,1.77l.23.85c.25.92.13,1.87-.36,2.84.93.05,1.51.5,1.74,1.35.27.99.06,1.58-.65,1.78.96,1.26,1.63,2.59,2.02,4.01l.41,1.48c.47,1.7.69,3.61.67,5.75.81.19,1.29.52,1.41.98l.78,3.66.99,1.1,2.49-.91,3.82-1.05c1.56-.43,2.98-.52,4.26-.26l-.04.69c.45.79,1.06,1.08,1.84.86l.21-.06.31-.54-1.08-.61-.12-.42.15-.27-.06-.21,1.39.07-.06-.21-.5-1,2.7-.97c.74-.09,1.15.03,1.24.34l.06.21c.08.28-.1.48-.52.6l-1.18-.13.12.42,3.05.3c-.21-1.46-.13-2.25.26-2.36l1.7-.47-.12-.42c.82-.61,1.22-1.1,1.19-1.47-1.13.31-1.76.26-1.87-.17l-.06-.21.15-.27-.06-.21.27.15.21-.06,1.43-.62c-.1-.35-.44-.49-1.02-.4l-.12-.42c2.25-5.07,2.6-10.42,1.05-16.04l-.45-.79.15-.27.27.15.85-.23.46-.81-1.76.26-.12-.42,1.27-.35c-.88-.44-2.03-2.1-3.43-4.99l1.37-.83-.23-.85c-1.54-.07-2.44-.58-2.71-1.54.04-1.23.24-1.89.59-1.99.83.38,1.47.51,1.93.38l-.06-.21c-.23-.85-.85-1.14-1.84-.86l-.21.06-1.37.83c-1.62-2.41-4.24-4.19-7.87-5.36-2.9-.57-4.98-.68-6.25-.33l-.79.45-.64.18c-.42.12-.77-.32-1.05-1.31-.9,1.01-2.15,1.73-3.74,2.17l-7.48,1.84ZM176.55,192.8l.79-.45.21-.06.54.31.18.64-.15.27.06.21,2.79-1.46-.06-.21c-.99.27-1.6-.01-1.84-.86l-1.24-.34c-.88.24-1.69.92-2.41,2.03l1.12-.08ZM162.03,142.7l.64-.18c.88-.24,1.58-1.04,2.08-2.4l-.42.12-2.41,2.03.12.42ZM179.51,189.47l1-.5c.92-.25,1.85.63,2.79,2.65l.21-.06.31-.54,1.27-.35.27.15.58-.39-.06-.21c-.06-.21-1.22-.58-3.5-1.09l-.06-.21-.08-1.12-1.12.08-1.48.41c-.32.09-.43.5-.34,1.24l.21-.06ZM189.53,191.04l-.15.27.66.73c2.05-.83,3-1.55,2.83-2.15l-.12-.42c-.69.8-1.39,1.3-2.1,1.49l-1.12.08ZM189.35,187.89l5.19-1.89-.66-.73c-3.2,1.07-4.73,1.88-4.59,2.41l.06.21ZM200.47,175.23c1.2-.33,1.93-.99,2.19-1.98l-.42.12c-1.53.92-2.27,1.58-2.19,1.98l.42-.12Z"/>
    <path class="cls-2" d="M247.3,123.27c.21,1.31.17,2.01-.11,2.08l-1.41-.98-.21.06-.79.45,2.85,2.87.12.42.42-.12.15-.27.21-.06-.5-1,.46-.81c.73.44,1.17.93,1.32,1.46l.06.21c.23.85-.14,1.41-1.13,1.68l.66.73,1.37-.83.27.15.06.21-.15.27.06.21.89,1.58-.21.06-.79.45-.64.18.06.21c.08.28.95.42,2.63.42l10.45,21.31c-.78.33-1.65,1.33-2.6,3l-.21.06-.27-.15-.21.06.12.42c1.02.78,1.86,1.08,2.53.9l-.06-.21c-.02-2.13.63-3.37,1.94-3.73l.85-.23,3.94-.63c-.09-.32-.8-.43-2.14-.32l-.06-.21.25-.75c-.42-.57-.98-.95-1.68-1.13l-.42.12c0,1.07-.16,1.64-.44,1.72l-.42.12-.54-.31-.22-19.8-.26-1.76.21-.06c.97.49,1.71.67,2.2.53l.15-.27-.06-.21-2.17-1.23-.1-12.76.42-.12,1.39.07.21-.06-.23-.85-1.27.35-.54-.31-.06-.21.31-.54,1.06-.29-.06-.21-1.35-.77-.12-.42.44-1.72,1.12-.08,1.91-.53.27.15.21-.06-.06-.21c-.1-.35-.95-.42-2.57-.2l-.12-.42c-.08-.28.52-.6,1.79-.95l-.06-.21h-1.6c-.2-.72,1.15-1.93,4.02-3.64,1.17-.17,1.87.17,2.11,1.02l1.13-1.68.42-.12.27.15.21-.06-.15.27.18.64c.57-.16.89-.09.97.19l-.31.54-1.24-.34-.64.18-.04.69,2.72-.07.15-.27.04-.69.21-.06c1.2-.33,3.07,1.21,5.61,4.61l4.93,9.6-.21.06-1.33.14-3.7,1.48.06.21c1.57.18,2.85.13,3.84-.15l2.16-1.28,12.71,22.06c1.13-.31.96-4.53-.52-12.64l-.51-27.48.42-.12c.16.57.87.67,2.14.32.71-.2,1.05-.6,1.04-1.2-.45-.79-.99-1.1-1.62-.92l-1.79.95c-.54-1.94.72-3.74,3.77-5.38l.85-.23.27.15.12.42-1.13,1.68.21-.06c1.03-.4,1.83-1.08,2.41-2.03,2.58.54,4.15,1.79,4.68,3.73l.35,1.27c1.6,5.8,1.86,15.85.79,30.15.66,10.66.98,18.72.96,24.16l-.5,1.51c-.35.1-.48.74-.38,1.93-1.09,1.98-2.64,3.24-4.66,3.8l-.27-.15.15-.27-.18-.64c-1.65.08-2.51,0-2.57-.2l.15-.27,1.7-.47c-.46-1.39-.87-2.04-1.22-1.95l-5.55,2.22-.27-.15-.23-.85.61-1.08,1.06-.29-.12-.42c-2.02.41-3.09.4-3.2-.03l-.12-.42.31-.54.27.15.21-.06-.06-.21c-2.79-2.96-6.29-8.16-10.47-15.6l-10.09-17.53-.06-.21c-.07-.25.35-.67,1.25-1.26l-.18-.64-.54-.31-1.31,1.05-.54-.31c-.29,2.67-.3,8.15-.03,16.44-.34,2.07-.75,3.63-1.22,4.67l.91,2.49c.62,2.26.41,4.53-.64,6.8,1.9,6.89,1.53,12.7-1.12,17.43-1.04,1.2-2.55,2.07-4.53,2.62-4.14,1.14-8-1.82-11.59-8.9l-.62-1.43c1.01-.89,1.92-1.44,2.74-1.67-.13-.46-1.36-.5-3.69-.12l-.27-.15-.12-.42.31-.54.42-.12,3.99-.42.21-.06-.06-.21c-1.44-.25-2.29-.85-2.55-1.81l.94-.72-.12-.42-1.06.29-.27-.15-.21.06-.25.75.74,1.85-.15.27-.21.06c-1.98.55-3.44-.88-4.38-4.27l.15-.27.21-.06,2.03-.1.21-.06,1-.5c-.73-.56-1.74-.66-3.05-.3l-1,.5c-.75-.52-1.57-1.81-2.44-3.89l.15-.27.75.25,2.31-1.55-.81-.46-.06-.21c-1.08.91-1.92,1.44-2.52,1.61-.25.07-.99-1.25-2.23-3.95-1.76-1.95-2.89-3.84-3.4-5.68.08-1.09.37-1.7.86-1.84l-.66-.73-1.37.83-2.47-4.8-.23-.85c.06-.62.54-1.06,1.46-1.32l-.06-.21c-1.17.32-2.29.1-3.38-.67l-.12-.42c-.08-.28.1-.48.52-.6l1.81-.04.58-.39-.06-.21c-1.41.39-2.49.08-3.23-.94-1.21-2.44-2.2-3.84-2.99-4.2l.31-.54,1.91-.53-.06-.21-1.67-2.74-1.02-.4.31-.54,1.81-.04-.06-.21.04-.69-.27-.15-.41-1.48,2.95-1.73c3.82-1.05,7.06,1.86,9.72,8.73ZM237.54,119.34c.07.25.81.73,2.22,1.44l.06.21-.25.75.21-.06c.66-.37.95-.68.88-.93l-.23-.85c-.71.2-1.2-.2-1.47-1.19l-1.48.41.06.21ZM241.85,131.62l.21-.06c.71-1.57,1.45-2.46,2.23-2.67l.42-.12c.28-.08.5.17.66.73l1.06-.29.19-.97c-1.03.28-2.11.2-3.26-.24-1.13,1.99-1.63,3.19-1.51,3.61ZM247.81,137.51l.21-.06-.18-.64c-.23-.85.07-1.39.92-1.62l-.27-.15-.06-.21c-.98.58-1.55,1.27-1.71,2.07l1.08.61ZM250.5,147.27l.06.21c.81-.22,1.57-1.35,2.27-3.37l-1.91.53c.25.92.11,1.79-.42,2.63ZM253.8,150.92l1.79-.95,1.27-.35-.12-.42c-.26-.39-.74-.48-1.45-.29-1.31.78-1.88,1.47-1.71,2.07l.21-.06ZM272.96,120.29c1.37-.57,1.99-1.05,1.89-1.43l-.06-.21-1.12.08c-1.03.67-1.48,1.25-1.35,1.74l.64-.18ZM293.58,144.51l-.29-1.06-.54-.31c-.57.42-1,1.07-1.29,1.95l2.12-.59ZM307.91,154.25c.99-.27,1.52-1.1,1.59-2.49l-.21.06c-1.38.5-1.97,1.12-1.77,1.86l.39.58ZM304.52,100.62l2.2.53c.51-.37.73-.66.67-.87-1.21-.24-1.98-.56-2.32-.96l.15-.27-.06-.21-.75-.25.1,2.03Z"/>
    <path class="cls-2" d="M339.63,86.82c13.89-3.84,24.5-1.51,31.83,6.97l.18.64-.61,1.08c.11.39.93.62,2.47.69,2.48,3.46,4.38,7.58,5.69,12.35,3.09,11.21,2.36,20.69-2.19,28.46-1.13,1.68-2.02,2.61-2.65,2.79-2.85.02-5.14.28-6.87.75l-.79.45.27.15.12.42-.25.75.06.21.54.31,1.06-.29.06.21c-.65,2.46-3.4,4.36-8.24,5.7-10.12,1.92-15.88,2.29-17.27,1.12l-.12-.42.04-.69-.21.06c-1.87.52-5.3-.59-10.28-3.33-5.71-4.7-9.58-10.71-11.6-18.03l-.59-2.12c-3-10.85-1.7-20.5,3.89-28.92,2.83-3.67,6.35-6.09,10.55-7.25l.27.15.06.21c.19.67-.17,1.61-1.05,2.8l.12.42.21-.06c1.56-.43,2.02-1.78,1.4-4.04l.52-.6,3.39-.94ZM324.14,121.69l.15-.27-.06-.21c-.46.13-1.37-.15-2.74-.84l-.21.06c-.21.06-.35.4-.4,1.02l3.26.24ZM327.37,122.62l-.04.69.27.15,2.33-.64.31-.54-2.11-1.02-.21.06c.09.32-.1.75-.56,1.29ZM336.99,131.84l-.15.27-1.48.41c-1.48.41-2.88,1.71-4.18,3.89l.21-.06,6.2-4,2.69,3.14.06.21v1.6c7.94,2.22,14.73,2.55,20.35,1-.4-1.45.57-2.63,2.9-3.54l.97.19c-.42-1.52.74-3.67,3.47-6.44l-.27-.15-.18-.64c-.6-2.16.16-4.11,2.26-5.87l-.06-.21c-.57.16-.93-.05-1.08-.61l-.69-4.15-.35-1.27-4.07-11.43-.28-2.66-.42.12-1.16.78c-4.85-6.12-10.75-8.22-17.72-6.3l-.21.06c-7.53,2.08-11.57,7.3-12.11,15.67-.19,3.71.16,7.19,1.06,10.44.85,3.08,2.26,6.26,4.24,9.56ZM326.26,101.24c1.7-.47,2.41-1.2,2.14-2.19l-.64.18c-.78.21-1.35.9-1.71,2.07l.21-.06ZM340.17,91.24l1.48-.41c.78-.21,1.19-.63,1.25-1.26l-.12-.42c-.26-.39-.74-.48-1.45-.29l-1.7.47.53,1.91ZM371,138.43l.15-.27.42-.12,1.81-.04.42-.12-.18-.64-.54-.31-1.06.29c-.83.3-1.19.63-1.1.99l.06.21ZM365.61,99.05l2.68-1.88-.06-.21-3.09.4c-1.38.5-2.01.97-1.89,1.43l2.36.26Z"/>
    <path class="cls-2" d="M417.58,69.18c5.61,2.14,9.02,5.39,10.22,9.73l.41,1.48c1.48,5.37.58,10.11-2.7,14.21.02.76-.1,1.17-.34,1.24l-.21.06-2.01-1.5c-.42,3.31-1.28,5.15-2.59,5.51l-.87-.67-.42.12c-.28.08-.41.72-.38,1.93,7.89,3.91,13.09,7.57,15.59,10.99l.39.58.18.64-.92,1.62c.11.39,1.19.47,3.26.24l.6.52.18.64-.64.18.06.21c1.89,1.34,2.99,2.56,3.29,3.66l.06.21c.29,1.06-.71,2.1-3.02,3.12l-2.04,1.7-.83-1.37-1.06.29-.96,2.32c-1.27-.18-1.93-.38-1.99-.59l.25-.75c-2.11-.48-3.28-1.15-3.52-2l-.02-.91c-2.14-.02-3.48-1.02-4.02-3l-.12-.42c-.27-.99.2-2.03,1.42-3.13l-.64.18-2.52,1.61c-.12-.42-2.7-2.6-7.74-6.54l-.12-.42.15-.27.21-.06,1.33-.14.21-.06-.18-.64c-.6.17-3.4-.58-8.38-2.25-2.44-.58-4.74-.63-6.89-.15-2.4.66-3.49,1.42-3.25,2.27l.34,2.87,3.29,10.28.29,1.06-.21.06-.91.02c-.57.16-.88.93-.96,2.32l.45.79c-1.81,1.15-2.81,1.95-2.98,2.42l.27.15.06.21c.64-.44.89-.89.77-1.35l.21-.06,2.77,1.75c1.28-.32,1.98-.28,2.08.11-.66.91-.83,1.94-.51,3.11-1.48.41-2.92,1.57-4.29,3.47l-1.37.83c-1.18.14-1.82,0-1.93-.38s.31-.81,1.25-1.26l-.18-.64-.21.06-1.35,1.74c-1.94-.42-3.28-1.95-4.01-4.6l3.29-2.96-.06-.21-.69-.04c-1.02.59-1.76,1.48-2.23,2.67-.28.08-.63-.36-1.05-1.31l-.67-3.24.31-.54,2.08.11.58-.39-.18-.64c-.11-.39-.84-.57-2.2-.53l-.79.45-.78-1.16c-.25-1.45-.23-2.22.05-2.3l-1.24-2.85-1.82-6.58c-.07-.25.49-.71,1.67-1.38-.07-.25-.76-.28-2.08-.11l-.2-1.54-4.11-13.25.13-1.18,4.26-.26-.06-.21-.83-1.37-.21.06-.52.6-.6-.52-.06-.21,1.86-2.34c-1.27.35-2.1-.18-2.49-1.59l-.21.06c-.52.6-1.17,1.01-1.95,1.22l.18.64c1.21.54,1.9,1.11,2.07,1.71.06.21-.34.7-1.19,1.47-.35.1-.95-.96-1.79-3.16-.29-1.06-.17-2.01.36-2.84-1.02-.94-1.65-1.83-1.88-2.68l-.35-1.27c-.8-5.26,1.04-8.51,5.53-9.74,1.73-.78,4.44-1.68,8.16-2.71,14.78-4.08,23.92-5.16,27.42-3.23ZM389.04,122.95l.31-.54c-.46-.56-.84-.83-1.14-.83l-.21.06-.31.54,1.35.77ZM385.21,101.63l1.38-2.44-1.76.26c-.38.14-.56.57-.56,1.29.37.66.68.95.93.88ZM393.28,132.51l.23.85.21-.06,1.95-1.22.72.94c.39-.26.48-.74.29-1.45-.16-.57-.65-.96-1.47-1.19l-.21.06c.27.99-.3,1.68-1.71,2.07ZM384.2,97.12l.15-.27.21-.06,4.18-1.38c-.72-.41-1.14-.83-1.26-1.25l-.42.12c-2.1,1.23-3.07,2.1-2.93,2.63l.06.21ZM385.25,90.21c-.37-1.34-.11-2.86.8-4.56l-.42.12c-1.24.34-1.92,1.44-2.05,3.31.55.76,1.11,1.14,1.68,1.13ZM391.54,113.81c.87.94,1.63,1.49,2.28,1.65l.15-.27.21-.06-.78-1.16-.23-.85-1.7.47.06.21ZM400.59,132.54l.21-.06-.29-1.06-.54-.31-.42.12c-.74.2-1.16.62-1.25,1.26l2.3.05ZM390.14,84.75c.55,2.4.7,4.33.46,5.81.42-.12.71.11.87.67l.43,2.39.78,1.16c-.66.37-.95.68-.88.93,1.46,1.99,2.32,3.43,2.56,4.32l.21-.06,10.97-3.26c1.94-.54,3.59-.38,4.92.47-.43,1.19-1.07,1.89-1.92,2.13l-.64.18-.27-.15-.21.06.12.42c.84,2.51,1.55,3.68,2.11,3.53l.64-.18c1.03-.28,1.47-.86,1.35-1.74l-.42.12-.83,1.14-.54-.31-.18-.64.85-.23-.59-2.12c-.08-.28.1-.48.52-.6.78-.21,1.51.5,2.19,2.14l3.24-.67c.74-.2,1.21-.71,1.4-1.53-1.41.39-2.26.09-2.53-.9l-.18-.64c-.69.95-1.3,1.5-1.83,1.65-.71-.11-1.15-.29-1.29-.56l-.12-.42.31-.54.64-.18,2.03-.1-.06-.21-.81-.46-2.33.64-.06-.21.04-.69-.21.06-.81-.46-.06-.21.31-.54,3.63-.09c.56-.46.83-.84.83-1.14l-1.7.47-.18-.64,2.41-2.03.21-.06,1.12-.08-.06-.21c-.75-4.36-.91-7.43-.49-9.22-1.91-.31-3.05-1.14-3.42-2.48-2.03-.62-7.33-.22-15.88,1.19l-.23-.85-.21.06c.2.74-2.02,2.04-6.69,3.9l.5,1ZM411.21,77.56l.58-.39c-.19-.4-.81-.46-1.87-.17l-.85.23-.46.81,2.6-.49ZM409.31,73.98l.06.21c.53-.15,1.41,0,2.63.42.42-.27.63-.63.61-1.08l-3.05-.3-.25.75ZM412.79,76.67c2.55-.13,3.99.38,4.31,1.55,1.15-1.08,1.97-1.69,2.46-1.82l-2.21-3.04c-.44.73-1.99,1.77-4.62,3.1l.06.21ZM425.4,90.08l.21-.06-.27-.15-.06-.21c-.21-.78.6-1.69,2.44-2.73l.15-.27-.06-.21-.21.06c-1.17.32-2.26,1.31-3.29,2.96l1.08.61Z"/>
    <path class="cls-2" d="M436.33,61.04c2.3-.63,4-.27,5.1,1.1,1.27,1.86,2.23,3.95,2.88,6.28l2.48,9.82-.15.27-.42.12c-.28.08-.48-.1-.6-.52l-.27-.15-.64.18.78,1.16.7,2.55.27.15c.08.28.47.33,1.18.13l.27.15,7.73,28,19-4.79,5.4-1.95,1.62.92.42-.12c.46-.13.9-.48,1.31-1.05,1.48-.41,2.96.78,4.41,3.58l.35,1.27c.7,2.55-.5,4.25-3.61,5.11l-7.1,2.42-8.76,2.19-12.19,3.82-1.48.41c-4.35,1.2-7.24.93-8.67-.8-.49.14-1.86-3.14-4.08-9.83l-4.03-16.24-5.38-17.01-.59-2.12c-1.85-6.72-1.52-11.3,1-13.75l1.79-.95,1.27-.35Z"/>
    <path class="cls-2" d="M504.55,43.12l3.12-1.09.27.15.08,1.12.18.64c.86,3.11,2.63,4.3,5.32,3.55l.27.15.06.21-.52.6-.64.18-3.51.51c-.83.3-1.19.63-1.1.99,1.64-.11,2.5-.04,2.57.2l.35,1.27,1.27-.35c-.09-.74.03-1.15.34-1.24l.42-.12c.46-.13,2.29.43,5.49,1.68l.21-.06c1.53-1.07,2.09-2.36,1.67-3.88l-.06-.21c-1.36.99-2.7,1.66-4.01,2.02l-.21.06c-1.1.3-1.9.14-2.41-.48,2.55-3.59,4.08-5.47,4.61-5.61l4.87,2.76c1.17.78,1.99,1.85,2.48,3.2,1.2-.33,3.18,1.86,5.93,6.58,1.67,3.3,2.81,6.04,3.4,8.19l-4.2,2.99c.08.28.33.37.75.25l1.52-1.1.42-.12.54.31.35,1.27c-.23.82-.63,1.31-1.19,1.47l.12.42.69.04,1.95-1.22.12.42-.56,1.29c.59-.09.93.05,1.02.4l.29,1.06c2.64,9.55.51,17.82-6.39,24.82-2.67,2.87-9.89,5.93-21.67,9.18-1.76.94-3.89,1.76-6.4,2.45l-2.33.64c-4.53,1.25-7.14.6-7.84-1.94-.28.08-.8-.69-1.55-2.31l.15-.27.21-.06c.37.51.66.73.87.67l.42-.12c.28-.08.37-.33.25-.75-.42-1.25-.74-1.85-.95-1.79-.53.3-.73.66-.61,1.08l-.42.12-.83-1.37-.12-.42c-.23-.85-.3-2.73-.19-5.65-.12-.42-.46-.56-1.02-.4l-.06-.21.4-1.02-.64.18-.12-.42c-.18-1.47.26-2.36,1.32-2.65l.21-.06c.47,1.7,1.55,2.31,3.25,1.84l.21-.06-.06-.21c-1.34-1-2.09-1.78-2.25-2.35-.12-.42.32-.77,1.31-1.05l-.54-.31-3.68,2.39-.21.06-.54-.31-.18-.64c-.08-.28.43-.65,1.52-1.1l-.06-.21-1.87-.17-1.37-5.79-7.3-25.61-.7-2.55,1.17-2.38,2.03-.1-.18-.64c-.09-.32-.66-.46-1.72-.44l-.06-.21c2.9-2.17,6.4-3.82,10.5-4.95l15.72-3.43ZM495,106.94l.21-.06,2.6-.49.25-.75-.21.06-1.21.56c-.78-.05-1.23-.31-1.35-.77l-.21.06-.07,1.39ZM490.37,81.05l.06.21,2.49-.91,2.03-.1-.06-.21c.13-.64.4-1.02.83-1.14l-.54-.31c-1.73.48-3.42,1.25-5.07,2.31l.27.15ZM496.77,105.08c1.94-.54,3.71-.49,5.29.14l.21-.06c.28-.08.33-.47.13-1.18l.15-.27.21-.06c.61.14,1.48.81,2.61,2.02l1.06-.29-.5-1,1.29-1.95c-2.84.33-5.94.95-9.3,1.88l-1.27.35.12.42ZM493.42,87.97l1.66.23.12.42-1.06.29c-.83.3-1.19.63-1.1.99l.12.42c3.25-.9,4.7-1.98,4.35-3.26l-.06-.21-1.54.2-2.55.7.06.21ZM496.52,99.21c.35,1.27,1.09,1.75,2.22,1.44l.42-.12c-.23-.85-1.07-1.38-2.49-1.59l-.21.06.06.21ZM490.68,56.54l-1.21.56c1.49,1.53,2.63,3.73,3.42,6.59l.47,1.7c.82,2.97.89,5.16.21,6.56,1,.33,1.62.92,1.86,1.77l.23.85c.25.92.13,1.87-.36,2.84.93.05,1.51.5,1.74,1.35.27.99.06,1.58-.65,1.78.96,1.26,1.63,2.59,2.02,4.01l.41,1.48c.47,1.7.69,3.61.67,5.75.81.19,1.29.52,1.41.98l.78,3.66.99,1.1,2.49-.91,3.82-1.05c1.56-.43,2.98-.52,4.26-.26l-.04.69c.45.79,1.06,1.08,1.84.86l.21-.06.31-.54-1.08-.61-.12-.42.15-.27-.06-.21,1.39.07-.06-.21-.5-1,2.7-.97c.74-.09,1.15.03,1.24.34l.06.21c.08.28-.1.48-.52.6l-1.18-.13.12.42,3.05.3c-.21-1.46-.13-2.25.26-2.36l1.7-.47-.12-.42c.82-.61,1.22-1.1,1.19-1.47-1.13.31-1.76.26-1.87-.17l-.06-.21.15-.27-.06-.21.27.15.21-.06,1.43-.62c-.1-.35-.44-.49-1.02-.4l-.12-.42c2.25-5.07,2.6-10.42,1.05-16.04l-.45-.79.15-.27.27.15.85-.23.46-.81-1.76.26-.12-.42,1.27-.35c-.88-.44-2.03-2.1-3.43-4.99l1.37-.83-.23-.85c-1.54-.07-2.44-.58-2.71-1.54.04-1.23.24-1.89.59-1.99.83.38,1.47.51,1.93.38l-.06-.21c-.23-.85-.85-1.14-1.84-.86l-.21.06-1.37.83c-1.62-2.41-4.24-4.19-7.87-5.36-2.9-.57-4.98-.68-6.25-.33l-.79.45-.64.18c-.42.12-.77-.32-1.05-1.31-.9,1.01-2.15,1.73-3.74,2.17l-7.48,1.84ZM506.99,101.57l.79-.45.21-.06.54.31.18.64-.15.27.06.21,2.79-1.46-.06-.21c-.99.27-1.6-.01-1.84-.86l-1.24-.34c-.88.24-1.69.92-2.41,2.03l1.12-.08ZM492.48,51.47l.64-.18c.88-.24,1.58-1.04,2.08-2.4l-.42.12-2.41,2.03.12.42ZM509.95,98.24l1-.5c.92-.25,1.85.63,2.79,2.65l.21-.06.31-.54,1.27-.35.27.15.58-.39-.06-.21c-.06-.21-1.22-.58-3.5-1.09l-.06-.21-.08-1.12-1.12.08-1.48.41c-.32.09-.43.5-.34,1.24l.21-.06ZM519.97,99.82l-.15.27.66.73c2.05-.83,3-1.55,2.83-2.15l-.12-.42c-.69.8-1.39,1.3-2.1,1.49l-1.12.08ZM519.79,96.67l5.19-1.89-.66-.73c-3.2,1.07-4.73,1.88-4.59,2.41l.06.21ZM530.91,84.01c1.2-.33,1.93-.99,2.19-1.98l-.42.12c-1.53.92-2.27,1.58-2.19,1.98l.42-.12Z"/>
  </g>
  <path class="cls-2" d="M465.99,394.29c1.07-1.62,2.14-3.25,3.21-4.87-3.55-1.77-6.96-4.31-10.7-4.93-1.52-.25-3.73,3.67-5.63,5.7,2.53,1.98,4.84,4.42,7.67,5.74,1.28.6,3.6-1.02,5.44-1.64Z"/>
</svg>